<mxfile host="app.diagrams.net" modified="2024-01-19T18:24:28.163Z" agent="Mozilla/5.0 (Macintosh; Intel Mac OS X 10_15_7) AppleWebKit/537.36 (KHTML, like Gecko) Chrome/120.0.0.0 Safari/537.36" etag="tEfeuj0qnT_ifOkYZQH-" version="22.1.21" type="device" pages="5">
  <diagram id="p05RpqRVbxg1mhdKNq_G" name="architecture">
    <mxGraphModel dx="940" dy="626" grid="1" gridSize="10" guides="1" tooltips="1" connect="1" arrows="1" fold="1" page="1" pageScale="1" pageWidth="1169" pageHeight="827" math="0" shadow="0">
      <root>
        <mxCell id="0" />
        <mxCell id="1" parent="0" />
        <mxCell id="espM0h3hznToyrAS_En8-128" value="&lt;font style=&quot;font-size: 24px;&quot; face=&quot;Times New Roman&quot;&gt;Host&lt;/font&gt;" style="rounded=0;whiteSpace=wrap;html=1;fillColor=#dedede;movable=1;resizable=1;rotatable=1;deletable=1;editable=1;locked=0;connectable=1;container=0;strokeColor=#808080;" parent="1" vertex="1">
          <mxGeometry x="380" y="320" width="120" height="60" as="geometry" />
        </mxCell>
        <mxCell id="EGdu3VNSDP0flqzudSKx-14" value="&lt;font style=&quot;font-size: 14px;&quot; face=&quot;Times New Roman&quot;&gt;Compute Device&lt;/font&gt;" style="text;html=1;strokeColor=none;fillColor=none;align=center;verticalAlign=middle;whiteSpace=wrap;rounded=0;movable=1;resizable=1;rotatable=1;deletable=1;editable=1;locked=0;connectable=1;container=0;" parent="1" vertex="1">
          <mxGeometry x="340" y="440" width="100" height="20" as="geometry" />
        </mxCell>
        <mxCell id="EGdu3VNSDP0flqzudSKx-15" value="&lt;font style=&quot;font-size: 14px;&quot; face=&quot;Times New Roman&quot;&gt;Compute Unit&lt;/font&gt;" style="text;html=1;strokeColor=none;fillColor=none;align=center;verticalAlign=middle;whiteSpace=wrap;rounded=0;movable=1;resizable=1;rotatable=1;deletable=1;editable=1;locked=0;connectable=1;container=0;" parent="1" vertex="1">
          <mxGeometry x="230" y="440" width="100" height="20" as="geometry" />
        </mxCell>
        <mxCell id="EGdu3VNSDP0flqzudSKx-16" value="&lt;font style=&quot;font-size: 14px;&quot; face=&quot;Times New Roman&quot;&gt;Processing Element&lt;/font&gt;" style="text;html=1;strokeColor=none;fillColor=none;align=center;verticalAlign=middle;whiteSpace=wrap;rounded=0;movable=1;resizable=1;rotatable=1;deletable=1;editable=1;locked=0;connectable=1;container=0;" parent="1" vertex="1">
          <mxGeometry x="100" y="440" width="120" height="20" as="geometry" />
        </mxCell>
        <mxCell id="espM0h3hznToyrAS_En8-27" value="" style="rounded=0;whiteSpace=wrap;html=1;fillColor=#dedede;strokeColor=#808080;movable=1;resizable=1;rotatable=1;deletable=1;editable=1;locked=0;connectable=1;container=0;" parent="1" vertex="1">
          <mxGeometry x="160" y="250" width="180" height="120" as="geometry" />
        </mxCell>
        <mxCell id="espM0h3hznToyrAS_En8-11" value="" style="rounded=0;whiteSpace=wrap;html=1;fillColor=#dae8fc;strokeColor=#6c8ebf;movable=1;resizable=1;rotatable=1;deletable=1;editable=1;locked=0;connectable=1;container=0;" parent="1" vertex="1">
          <mxGeometry x="210" y="260" width="120" height="60" as="geometry" />
        </mxCell>
        <mxCell id="espM0h3hznToyrAS_En8-12" value="" style="rounded=0;whiteSpace=wrap;html=1;fillColor=#f8cecc;strokeColor=#b85450;movable=1;resizable=1;rotatable=1;deletable=1;editable=1;locked=0;connectable=1;container=0;" parent="1" vertex="1">
          <mxGeometry x="220" y="270" width="10" height="40" as="geometry" />
        </mxCell>
        <mxCell id="espM0h3hznToyrAS_En8-13" value="" style="rounded=0;whiteSpace=wrap;html=1;fillColor=#f8cecc;strokeColor=#b85450;movable=1;resizable=1;rotatable=1;deletable=1;editable=1;locked=0;connectable=1;container=0;" parent="1" vertex="1">
          <mxGeometry x="240" y="270" width="10" height="40" as="geometry" />
        </mxCell>
        <mxCell id="espM0h3hznToyrAS_En8-14" value="" style="rounded=0;whiteSpace=wrap;html=1;fillColor=#f8cecc;strokeColor=#b85450;movable=1;resizable=1;rotatable=1;deletable=1;editable=1;locked=0;connectable=1;container=0;" parent="1" vertex="1">
          <mxGeometry x="260" y="270" width="10" height="40" as="geometry" />
        </mxCell>
        <mxCell id="espM0h3hznToyrAS_En8-15" value="" style="rounded=0;whiteSpace=wrap;html=1;fillColor=#f8cecc;strokeColor=#b85450;movable=1;resizable=1;rotatable=1;deletable=1;editable=1;locked=0;connectable=1;container=0;" parent="1" vertex="1">
          <mxGeometry x="310" y="270" width="10" height="40" as="geometry" />
        </mxCell>
        <mxCell id="espM0h3hznToyrAS_En8-16" value="" style="endArrow=none;dashed=1;html=1;dashPattern=1 2;strokeWidth=3;rounded=0;movable=1;resizable=1;rotatable=1;deletable=1;editable=1;locked=0;connectable=1;" parent="1" edge="1">
          <mxGeometry width="50" height="50" relative="1" as="geometry">
            <mxPoint x="280" y="290" as="sourcePoint" />
            <mxPoint x="305" y="290" as="targetPoint" />
          </mxGeometry>
        </mxCell>
        <mxCell id="espM0h3hznToyrAS_En8-1" value="" style="rounded=0;whiteSpace=wrap;html=1;fillColor=#dae8fc;strokeColor=#6c8ebf;movable=1;resizable=1;rotatable=1;deletable=1;editable=1;locked=0;connectable=1;container=0;" parent="1" vertex="1">
          <mxGeometry x="190" y="280" width="120" height="60" as="geometry" />
        </mxCell>
        <mxCell id="espM0h3hznToyrAS_En8-3" value="" style="rounded=0;whiteSpace=wrap;html=1;fillColor=#f8cecc;strokeColor=#b85450;movable=1;resizable=1;rotatable=1;deletable=1;editable=1;locked=0;connectable=1;container=0;" parent="1" vertex="1">
          <mxGeometry x="200" y="290" width="10" height="40" as="geometry" />
        </mxCell>
        <mxCell id="espM0h3hznToyrAS_En8-4" value="" style="rounded=0;whiteSpace=wrap;html=1;fillColor=#f8cecc;strokeColor=#b85450;movable=1;resizable=1;rotatable=1;deletable=1;editable=1;locked=0;connectable=1;container=0;" parent="1" vertex="1">
          <mxGeometry x="220" y="290" width="10" height="40" as="geometry" />
        </mxCell>
        <mxCell id="espM0h3hznToyrAS_En8-5" value="" style="rounded=0;whiteSpace=wrap;html=1;fillColor=#f8cecc;strokeColor=#b85450;movable=1;resizable=1;rotatable=1;deletable=1;editable=1;locked=0;connectable=1;container=0;" parent="1" vertex="1">
          <mxGeometry x="240" y="290" width="10" height="40" as="geometry" />
        </mxCell>
        <mxCell id="espM0h3hznToyrAS_En8-6" value="" style="rounded=0;whiteSpace=wrap;html=1;fillColor=#f8cecc;strokeColor=#b85450;movable=1;resizable=1;rotatable=1;deletable=1;editable=1;locked=0;connectable=1;container=0;" parent="1" vertex="1">
          <mxGeometry x="290" y="290" width="10" height="40" as="geometry" />
        </mxCell>
        <mxCell id="espM0h3hznToyrAS_En8-8" value="" style="endArrow=none;dashed=1;html=1;dashPattern=1 2;strokeWidth=3;rounded=0;movable=1;resizable=1;rotatable=1;deletable=1;editable=1;locked=0;connectable=1;" parent="1" edge="1">
          <mxGeometry width="50" height="50" relative="1" as="geometry">
            <mxPoint x="260" y="310" as="sourcePoint" />
            <mxPoint x="285" y="310" as="targetPoint" />
          </mxGeometry>
        </mxCell>
        <mxCell id="espM0h3hznToyrAS_En8-21" value="" style="rounded=0;whiteSpace=wrap;html=1;fillColor=#dae8fc;strokeColor=#6c8ebf;movable=1;resizable=1;rotatable=1;deletable=1;editable=1;locked=0;connectable=1;container=0;" parent="1" vertex="1">
          <mxGeometry x="170" y="300" width="120" height="60" as="geometry" />
        </mxCell>
        <mxCell id="espM0h3hznToyrAS_En8-22" value="" style="rounded=0;whiteSpace=wrap;html=1;fillColor=#f8cecc;strokeColor=#b85450;movable=1;resizable=1;rotatable=1;deletable=1;editable=1;locked=0;connectable=1;container=0;" parent="1" vertex="1">
          <mxGeometry x="180" y="310" width="10" height="40" as="geometry" />
        </mxCell>
        <mxCell id="espM0h3hznToyrAS_En8-23" value="" style="rounded=0;whiteSpace=wrap;html=1;fillColor=#f8cecc;strokeColor=#b85450;movable=1;resizable=1;rotatable=1;deletable=1;editable=1;locked=0;connectable=1;container=0;" parent="1" vertex="1">
          <mxGeometry x="200" y="310" width="10" height="40" as="geometry" />
        </mxCell>
        <mxCell id="espM0h3hznToyrAS_En8-24" value="" style="rounded=0;whiteSpace=wrap;html=1;fillColor=#f8cecc;strokeColor=#b85450;movable=1;resizable=1;rotatable=1;deletable=1;editable=1;locked=0;connectable=1;container=0;" parent="1" vertex="1">
          <mxGeometry x="220" y="310" width="10" height="40" as="geometry" />
        </mxCell>
        <mxCell id="espM0h3hznToyrAS_En8-25" value="" style="rounded=0;whiteSpace=wrap;html=1;fillColor=#f8cecc;strokeColor=#b85450;movable=1;resizable=1;rotatable=1;deletable=1;editable=1;locked=0;connectable=1;container=0;" parent="1" vertex="1">
          <mxGeometry x="270" y="310" width="10" height="40" as="geometry" />
        </mxCell>
        <mxCell id="espM0h3hznToyrAS_En8-26" value="" style="endArrow=none;dashed=1;html=1;dashPattern=1 2;strokeWidth=3;rounded=0;movable=1;resizable=1;rotatable=1;deletable=1;editable=1;locked=0;connectable=1;" parent="1" edge="1">
          <mxGeometry width="50" height="50" relative="1" as="geometry">
            <mxPoint x="240" y="330" as="sourcePoint" />
            <mxPoint x="265" y="330" as="targetPoint" />
          </mxGeometry>
        </mxCell>
        <mxCell id="espM0h3hznToyrAS_En8-56" value="" style="rounded=0;whiteSpace=wrap;html=1;fillColor=#dedede;strokeColor=#808080;movable=1;resizable=1;rotatable=1;deletable=1;editable=1;locked=0;connectable=1;container=0;" parent="1" vertex="1">
          <mxGeometry x="130" y="280" width="180" height="120" as="geometry" />
        </mxCell>
        <mxCell id="espM0h3hznToyrAS_En8-58" value="" style="rounded=0;whiteSpace=wrap;html=1;fillColor=#dae8fc;strokeColor=#6c8ebf;movable=1;resizable=1;rotatable=1;deletable=1;editable=1;locked=0;connectable=1;container=0;" parent="1" vertex="1">
          <mxGeometry x="180" y="290" width="120" height="60" as="geometry" />
        </mxCell>
        <mxCell id="espM0h3hznToyrAS_En8-59" value="" style="rounded=0;whiteSpace=wrap;html=1;fillColor=#f8cecc;strokeColor=#b85450;movable=1;resizable=1;rotatable=1;deletable=1;editable=1;locked=0;connectable=1;container=0;" parent="1" vertex="1">
          <mxGeometry x="190" y="300" width="10" height="40" as="geometry" />
        </mxCell>
        <mxCell id="espM0h3hznToyrAS_En8-60" value="" style="rounded=0;whiteSpace=wrap;html=1;fillColor=#f8cecc;strokeColor=#b85450;movable=1;resizable=1;rotatable=1;deletable=1;editable=1;locked=0;connectable=1;container=0;" parent="1" vertex="1">
          <mxGeometry x="210" y="300" width="10" height="40" as="geometry" />
        </mxCell>
        <mxCell id="espM0h3hznToyrAS_En8-61" value="" style="rounded=0;whiteSpace=wrap;html=1;fillColor=#f8cecc;strokeColor=#b85450;movable=1;resizable=1;rotatable=1;deletable=1;editable=1;locked=0;connectable=1;container=0;" parent="1" vertex="1">
          <mxGeometry x="230" y="300" width="10" height="40" as="geometry" />
        </mxCell>
        <mxCell id="espM0h3hznToyrAS_En8-62" value="" style="rounded=0;whiteSpace=wrap;html=1;fillColor=#f8cecc;strokeColor=#b85450;movable=1;resizable=1;rotatable=1;deletable=1;editable=1;locked=0;connectable=1;container=0;" parent="1" vertex="1">
          <mxGeometry x="280" y="300" width="10" height="40" as="geometry" />
        </mxCell>
        <mxCell id="espM0h3hznToyrAS_En8-63" value="" style="endArrow=none;dashed=1;html=1;dashPattern=1 2;strokeWidth=3;rounded=0;movable=1;resizable=1;rotatable=1;deletable=1;editable=1;locked=0;connectable=1;" parent="1" edge="1">
          <mxGeometry width="50" height="50" relative="1" as="geometry">
            <mxPoint x="250" y="320" as="sourcePoint" />
            <mxPoint x="275" y="320" as="targetPoint" />
          </mxGeometry>
        </mxCell>
        <mxCell id="espM0h3hznToyrAS_En8-66" value="" style="rounded=0;whiteSpace=wrap;html=1;fillColor=#dae8fc;strokeColor=#6c8ebf;movable=1;resizable=1;rotatable=1;deletable=1;editable=1;locked=0;connectable=1;container=0;" parent="1" vertex="1">
          <mxGeometry x="160" y="310" width="120" height="60" as="geometry" />
        </mxCell>
        <mxCell id="espM0h3hznToyrAS_En8-67" value="" style="rounded=0;whiteSpace=wrap;html=1;fillColor=#f8cecc;strokeColor=#b85450;movable=1;resizable=1;rotatable=1;deletable=1;editable=1;locked=0;connectable=1;container=0;" parent="1" vertex="1">
          <mxGeometry x="170" y="320" width="10" height="40" as="geometry" />
        </mxCell>
        <mxCell id="espM0h3hznToyrAS_En8-68" value="" style="rounded=0;whiteSpace=wrap;html=1;fillColor=#f8cecc;strokeColor=#b85450;movable=1;resizable=1;rotatable=1;deletable=1;editable=1;locked=0;connectable=1;container=0;" parent="1" vertex="1">
          <mxGeometry x="190" y="320" width="10" height="40" as="geometry" />
        </mxCell>
        <mxCell id="espM0h3hznToyrAS_En8-69" value="" style="rounded=0;whiteSpace=wrap;html=1;fillColor=#f8cecc;strokeColor=#b85450;movable=1;resizable=1;rotatable=1;deletable=1;editable=1;locked=0;connectable=1;container=0;" parent="1" vertex="1">
          <mxGeometry x="210" y="320" width="10" height="40" as="geometry" />
        </mxCell>
        <mxCell id="espM0h3hznToyrAS_En8-70" value="" style="rounded=0;whiteSpace=wrap;html=1;fillColor=#f8cecc;strokeColor=#b85450;movable=1;resizable=1;rotatable=1;deletable=1;editable=1;locked=0;connectable=1;container=0;" parent="1" vertex="1">
          <mxGeometry x="260" y="320" width="10" height="40" as="geometry" />
        </mxCell>
        <mxCell id="espM0h3hznToyrAS_En8-71" value="" style="endArrow=none;dashed=1;html=1;dashPattern=1 2;strokeWidth=3;rounded=0;movable=1;resizable=1;rotatable=1;deletable=1;editable=1;locked=0;connectable=1;" parent="1" edge="1">
          <mxGeometry width="50" height="50" relative="1" as="geometry">
            <mxPoint x="230" y="340" as="sourcePoint" />
            <mxPoint x="255" y="340" as="targetPoint" />
          </mxGeometry>
        </mxCell>
        <mxCell id="espM0h3hznToyrAS_En8-73" value="" style="rounded=0;whiteSpace=wrap;html=1;fillColor=#dae8fc;strokeColor=#6c8ebf;movable=1;resizable=1;rotatable=1;deletable=1;editable=1;locked=0;connectable=1;container=0;" parent="1" vertex="1">
          <mxGeometry x="140" y="330" width="120" height="60" as="geometry" />
        </mxCell>
        <mxCell id="espM0h3hznToyrAS_En8-74" value="" style="rounded=0;whiteSpace=wrap;html=1;fillColor=#f8cecc;strokeColor=#b85450;movable=1;resizable=1;rotatable=1;deletable=1;editable=1;locked=0;connectable=1;container=0;" parent="1" vertex="1">
          <mxGeometry x="150" y="340" width="10" height="40" as="geometry" />
        </mxCell>
        <mxCell id="espM0h3hznToyrAS_En8-75" value="" style="rounded=0;whiteSpace=wrap;html=1;fillColor=#f8cecc;strokeColor=#b85450;movable=1;resizable=1;rotatable=1;deletable=1;editable=1;locked=0;connectable=1;container=0;" parent="1" vertex="1">
          <mxGeometry x="170" y="340" width="10" height="40" as="geometry" />
        </mxCell>
        <mxCell id="espM0h3hznToyrAS_En8-76" value="" style="rounded=0;whiteSpace=wrap;html=1;fillColor=#f8cecc;strokeColor=#b85450;movable=1;resizable=1;rotatable=1;deletable=1;editable=1;locked=0;connectable=1;container=0;" parent="1" vertex="1">
          <mxGeometry x="190" y="340" width="10" height="40" as="geometry" />
        </mxCell>
        <mxCell id="espM0h3hznToyrAS_En8-77" value="" style="rounded=0;whiteSpace=wrap;html=1;fillColor=#f8cecc;strokeColor=#b85450;movable=1;resizable=1;rotatable=1;deletable=1;editable=1;locked=0;connectable=1;container=0;" parent="1" vertex="1">
          <mxGeometry x="240" y="340" width="10" height="40" as="geometry" />
        </mxCell>
        <mxCell id="espM0h3hznToyrAS_En8-78" value="" style="endArrow=none;dashed=1;html=1;dashPattern=1 2;strokeWidth=3;rounded=0;movable=1;resizable=1;rotatable=1;deletable=1;editable=1;locked=0;connectable=1;" parent="1" edge="1">
          <mxGeometry width="50" height="50" relative="1" as="geometry">
            <mxPoint x="210" y="360" as="sourcePoint" />
            <mxPoint x="235" y="360" as="targetPoint" />
          </mxGeometry>
        </mxCell>
        <mxCell id="espM0h3hznToyrAS_En8-104" value="" style="rounded=0;whiteSpace=wrap;html=1;fillColor=#dedede;strokeColor=#808080;movable=1;resizable=1;rotatable=1;deletable=1;editable=1;locked=0;connectable=1;container=0;" parent="1" vertex="1">
          <mxGeometry x="100" y="310" width="180" height="120" as="geometry" />
        </mxCell>
        <mxCell id="espM0h3hznToyrAS_En8-120" value="" style="group;fillColor=#b1ddf0;strokeColor=#10739e;movable=1;resizable=1;rotatable=1;deletable=1;editable=1;locked=0;connectable=1;container=0;" parent="1" vertex="1" connectable="0">
          <mxGeometry x="110" y="360" width="120" height="60" as="geometry" />
        </mxCell>
        <mxCell id="espM0h3hznToyrAS_En8-106" value="" style="rounded=0;whiteSpace=wrap;html=1;fillColor=#dae8fc;strokeColor=#6c8ebf;movable=1;resizable=1;rotatable=1;deletable=1;editable=1;locked=0;connectable=1;container=0;" parent="1" vertex="1">
          <mxGeometry x="150" y="320" width="120" height="60" as="geometry" />
        </mxCell>
        <mxCell id="espM0h3hznToyrAS_En8-107" value="" style="rounded=0;whiteSpace=wrap;html=1;fillColor=#f8cecc;strokeColor=#b85450;movable=1;resizable=1;rotatable=1;deletable=1;editable=1;locked=0;connectable=1;container=0;" parent="1" vertex="1">
          <mxGeometry x="160" y="330" width="10" height="40" as="geometry" />
        </mxCell>
        <mxCell id="espM0h3hznToyrAS_En8-108" value="" style="rounded=0;whiteSpace=wrap;html=1;fillColor=#f8cecc;strokeColor=#b85450;movable=1;resizable=1;rotatable=1;deletable=1;editable=1;locked=0;connectable=1;container=0;" parent="1" vertex="1">
          <mxGeometry x="180" y="330" width="10" height="40" as="geometry" />
        </mxCell>
        <mxCell id="espM0h3hznToyrAS_En8-109" value="" style="rounded=0;whiteSpace=wrap;html=1;fillColor=#f8cecc;strokeColor=#b85450;movable=1;resizable=1;rotatable=1;deletable=1;editable=1;locked=0;connectable=1;container=0;" parent="1" vertex="1">
          <mxGeometry x="200" y="330" width="10" height="40" as="geometry" />
        </mxCell>
        <mxCell id="espM0h3hznToyrAS_En8-110" value="" style="rounded=0;whiteSpace=wrap;html=1;fillColor=#f8cecc;strokeColor=#b85450;movable=1;resizable=1;rotatable=1;deletable=1;editable=1;locked=0;connectable=1;container=0;" parent="1" vertex="1">
          <mxGeometry x="250" y="330" width="10" height="40" as="geometry" />
        </mxCell>
        <mxCell id="espM0h3hznToyrAS_En8-111" value="" style="endArrow=none;dashed=1;html=1;dashPattern=1 2;strokeWidth=3;rounded=0;movable=1;resizable=1;rotatable=1;deletable=1;editable=1;locked=0;connectable=1;" parent="1" edge="1">
          <mxGeometry width="50" height="50" relative="1" as="geometry">
            <mxPoint x="220" y="350" as="sourcePoint" />
            <mxPoint x="245" y="350" as="targetPoint" />
          </mxGeometry>
        </mxCell>
        <mxCell id="espM0h3hznToyrAS_En8-114" value="" style="rounded=0;whiteSpace=wrap;html=1;fillColor=#dae8fc;strokeColor=#6c8ebf;movable=1;resizable=1;rotatable=1;deletable=1;editable=1;locked=0;connectable=1;container=0;" parent="1" vertex="1">
          <mxGeometry x="130" y="340" width="120" height="60" as="geometry" />
        </mxCell>
        <mxCell id="espM0h3hznToyrAS_En8-115" value="" style="rounded=0;whiteSpace=wrap;html=1;fillColor=#f8cecc;strokeColor=#b85450;movable=1;resizable=1;rotatable=1;deletable=1;editable=1;locked=0;connectable=1;container=0;" parent="1" vertex="1">
          <mxGeometry x="140" y="350" width="10" height="40" as="geometry" />
        </mxCell>
        <mxCell id="espM0h3hznToyrAS_En8-116" value="" style="rounded=0;whiteSpace=wrap;html=1;fillColor=#f8cecc;strokeColor=#b85450;movable=1;resizable=1;rotatable=1;deletable=1;editable=1;locked=0;connectable=1;container=0;" parent="1" vertex="1">
          <mxGeometry x="160" y="350" width="10" height="40" as="geometry" />
        </mxCell>
        <mxCell id="espM0h3hznToyrAS_En8-117" value="" style="rounded=0;whiteSpace=wrap;html=1;fillColor=#f8cecc;strokeColor=#b85450;movable=1;resizable=1;rotatable=1;deletable=1;editable=1;locked=0;connectable=1;container=0;" parent="1" vertex="1">
          <mxGeometry x="180" y="350" width="10" height="40" as="geometry" />
        </mxCell>
        <mxCell id="espM0h3hznToyrAS_En8-118" value="" style="rounded=0;whiteSpace=wrap;html=1;fillColor=#f8cecc;strokeColor=#b85450;movable=1;resizable=1;rotatable=1;deletable=1;editable=1;locked=0;connectable=1;container=0;" parent="1" vertex="1">
          <mxGeometry x="230" y="350" width="10" height="40" as="geometry" />
        </mxCell>
        <mxCell id="espM0h3hznToyrAS_En8-119" value="" style="endArrow=none;dashed=1;html=1;dashPattern=1 2;strokeWidth=3;rounded=0;movable=1;resizable=1;rotatable=1;deletable=1;editable=1;locked=0;connectable=1;" parent="1" edge="1">
          <mxGeometry width="50" height="50" relative="1" as="geometry">
            <mxPoint x="200" y="370" as="sourcePoint" />
            <mxPoint x="225" y="370" as="targetPoint" />
          </mxGeometry>
        </mxCell>
        <mxCell id="espM0h3hznToyrAS_En8-121" value="" style="rounded=0;whiteSpace=wrap;html=1;fillColor=#dae8fc;strokeColor=#6c8ebf;movable=1;resizable=1;rotatable=1;deletable=1;editable=1;locked=0;connectable=1;container=0;" parent="1" vertex="1">
          <mxGeometry x="110" y="360" width="120" height="60" as="geometry" />
        </mxCell>
        <mxCell id="espM0h3hznToyrAS_En8-122" value="" style="rounded=0;whiteSpace=wrap;html=1;fillColor=#f8cecc;strokeColor=#b85450;movable=1;resizable=1;rotatable=1;deletable=1;editable=1;locked=0;connectable=1;container=0;" parent="1" vertex="1">
          <mxGeometry x="120" y="370" width="10" height="40" as="geometry" />
        </mxCell>
        <mxCell id="espM0h3hznToyrAS_En8-123" value="" style="rounded=0;whiteSpace=wrap;html=1;fillColor=#f8cecc;strokeColor=#b85450;movable=1;resizable=1;rotatable=1;deletable=1;editable=1;locked=0;connectable=1;container=0;" parent="1" vertex="1">
          <mxGeometry x="140" y="370" width="10" height="40" as="geometry" />
        </mxCell>
        <mxCell id="espM0h3hznToyrAS_En8-124" value="" style="rounded=0;whiteSpace=wrap;html=1;fillColor=#f8cecc;strokeColor=#b85450;movable=1;resizable=1;rotatable=1;deletable=1;editable=1;locked=0;connectable=1;container=0;" parent="1" vertex="1">
          <mxGeometry x="160" y="370" width="10" height="40" as="geometry" />
        </mxCell>
        <mxCell id="espM0h3hznToyrAS_En8-125" value="" style="rounded=0;whiteSpace=wrap;html=1;fillColor=#f8cecc;strokeColor=#b85450;movable=1;resizable=1;rotatable=1;deletable=1;editable=1;locked=0;connectable=1;container=0;" parent="1" vertex="1">
          <mxGeometry x="210" y="370" width="10" height="40" as="geometry" />
        </mxCell>
        <mxCell id="espM0h3hznToyrAS_En8-126" value="" style="endArrow=none;dashed=1;html=1;dashPattern=1 2;strokeWidth=3;rounded=0;movable=1;resizable=1;rotatable=1;deletable=1;editable=1;locked=0;connectable=1;" parent="1" edge="1">
          <mxGeometry width="50" height="50" relative="1" as="geometry">
            <mxPoint x="180" y="390" as="sourcePoint" />
            <mxPoint x="205" y="390" as="targetPoint" />
          </mxGeometry>
        </mxCell>
        <mxCell id="EGdu3VNSDP0flqzudSKx-17" style="rounded=0;orthogonalLoop=1;jettySize=auto;html=1;entryX=0.944;entryY=0.833;entryDx=0;entryDy=0;entryPerimeter=0;endArrow=classicThin;endFill=1;movable=1;resizable=1;rotatable=1;deletable=1;editable=1;locked=0;connectable=1;" parent="1" source="EGdu3VNSDP0flqzudSKx-14" target="espM0h3hznToyrAS_En8-104" edge="1">
          <mxGeometry relative="1" as="geometry" />
        </mxCell>
        <mxCell id="EGdu3VNSDP0flqzudSKx-18" style="rounded=0;orthogonalLoop=1;jettySize=auto;html=1;exitX=0.25;exitY=0;exitDx=0;exitDy=0;endArrow=classicThin;endFill=1;movable=1;resizable=1;rotatable=1;deletable=1;editable=1;locked=0;connectable=1;" parent="1" source="EGdu3VNSDP0flqzudSKx-15" edge="1">
          <mxGeometry relative="1" as="geometry">
            <mxPoint x="223" y="416" as="targetPoint" />
          </mxGeometry>
        </mxCell>
        <mxCell id="EGdu3VNSDP0flqzudSKx-19" style="rounded=0;orthogonalLoop=1;jettySize=auto;html=1;exitX=0.5;exitY=0;exitDx=0;exitDy=0;endArrow=classicThin;endFill=1;movable=1;resizable=1;rotatable=1;deletable=1;editable=1;locked=0;connectable=1;" parent="1" source="EGdu3VNSDP0flqzudSKx-16" edge="1">
          <mxGeometry relative="1" as="geometry">
            <mxPoint x="165" y="404" as="targetPoint" />
          </mxGeometry>
        </mxCell>
        <mxCell id="EGdu3VNSDP0flqzudSKx-12" value="" style="endArrow=none;html=1;rounded=0;endFill=0;strokeWidth=2;movable=1;resizable=1;rotatable=1;deletable=1;editable=1;locked=0;connectable=1;" parent="1" edge="1">
          <mxGeometry width="50" height="50" relative="1" as="geometry">
            <mxPoint x="280" y="380" as="sourcePoint" />
            <mxPoint x="340" y="320" as="targetPoint" />
            <Array as="points">
              <mxPoint x="290" y="380" />
              <mxPoint x="350" y="320" />
            </Array>
          </mxGeometry>
        </mxCell>
        <mxCell id="EGdu3VNSDP0flqzudSKx-13" value="" style="endArrow=none;html=1;rounded=0;strokeWidth=2;entryX=0;entryY=0.5;entryDx=0;entryDy=0;movable=1;resizable=1;rotatable=1;deletable=1;editable=1;locked=0;connectable=1;" parent="1" target="espM0h3hznToyrAS_En8-128" edge="1">
          <mxGeometry width="50" height="50" relative="1" as="geometry">
            <mxPoint x="310" y="350" as="sourcePoint" />
            <mxPoint x="360" y="350" as="targetPoint" />
          </mxGeometry>
        </mxCell>
      </root>
    </mxGraphModel>
  </diagram>
  <diagram id="NNzer5Hgp30WFgObOpQU" name="memory">
    <mxGraphModel dx="940" dy="626" grid="1" gridSize="10" guides="1" tooltips="1" connect="1" arrows="1" fold="1" page="1" pageScale="1" pageWidth="1169" pageHeight="827" background="none" math="0" shadow="0">
      <root>
        <mxCell id="0" />
        <mxCell id="8NljoQmVv1keE4PW_RnH-41" value="host/device" parent="0" />
        <mxCell id="8NljoQmVv1keE4PW_RnH-1" value="&lt;font style=&quot;font-size: 14px;&quot; face=&quot;Times New Roman&quot;&gt;Compute Device&lt;/font&gt;" style="rounded=0;whiteSpace=wrap;html=1;fillColor=#f5f5f5;fontColor=#000000;strokeColor=#666666;movable=1;resizable=1;rotatable=1;deletable=1;editable=1;locked=0;connectable=1;verticalAlign=top;align=center;fontSize=12;fontStyle=1" parent="8NljoQmVv1keE4PW_RnH-41" vertex="1">
          <mxGeometry x="100" y="110" width="420" height="260" as="geometry" />
        </mxCell>
        <mxCell id="zx083eCQ5wcBT4JsWsRx-1" value="&lt;font style=&quot;font-size: 14px;&quot; face=&quot;Times New Roman&quot;&gt;Host&lt;/font&gt;" style="rounded=0;whiteSpace=wrap;html=1;fillColor=#f5f5f5;fontColor=#000000;strokeColor=#666666;verticalAlign=bottom;align=center;fontStyle=1" parent="8NljoQmVv1keE4PW_RnH-41" vertex="1">
          <mxGeometry x="100" y="380" width="420" height="60" as="geometry" />
        </mxCell>
        <mxCell id="-iRpj6bhHmE46wF5TIR2-26" value="&lt;font style=&quot;font-size: 14px;&quot; face=&quot;Times New Roman&quot;&gt;Compute Device&lt;/font&gt;" style="rounded=0;whiteSpace=wrap;html=1;fillColor=#f5f5f5;fontColor=#000000;strokeColor=#666666;movable=1;resizable=1;rotatable=1;deletable=1;editable=1;locked=0;connectable=1;verticalAlign=top;align=left;fontSize=12;fontStyle=1;spacingLeft=5;" parent="8NljoQmVv1keE4PW_RnH-41" vertex="1">
          <mxGeometry x="600" y="120" width="420" height="260" as="geometry" />
        </mxCell>
        <mxCell id="-iRpj6bhHmE46wF5TIR2-27" value="&lt;font style=&quot;font-size: 14px;&quot; face=&quot;Times New Roman&quot;&gt;Host&lt;/font&gt;" style="rounded=0;whiteSpace=wrap;html=1;fillColor=#f5f5f5;fontColor=#000000;strokeColor=#666666;verticalAlign=top;align=left;fontStyle=1;spacingLeft=5;" parent="8NljoQmVv1keE4PW_RnH-41" vertex="1">
          <mxGeometry x="600" y="390" width="420" height="70" as="geometry" />
        </mxCell>
        <mxCell id="-iRpj6bhHmE46wF5TIR2-28" value="&lt;font style=&quot;font-size: 14px;&quot; face=&quot;Times New Roman&quot;&gt;Work-Group&lt;/font&gt;" style="rounded=0;whiteSpace=wrap;html=1;verticalAlign=top;align=left;fontStyle=1;spacingLeft=5;" parent="8NljoQmVv1keE4PW_RnH-41" vertex="1">
          <mxGeometry x="820" y="150" width="190" height="160" as="geometry" />
        </mxCell>
        <mxCell id="-iRpj6bhHmE46wF5TIR2-29" value="&lt;font style=&quot;font-size: 14px;&quot; face=&quot;Times New Roman&quot;&gt;Work-Group&lt;/font&gt;" style="rounded=0;whiteSpace=wrap;html=1;verticalAlign=top;align=left;fontStyle=1;spacingLeft=5;" parent="8NljoQmVv1keE4PW_RnH-41" vertex="1">
          <mxGeometry x="610" y="150" width="190" height="160" as="geometry" />
        </mxCell>
        <mxCell id="-iRpj6bhHmE46wF5TIR2-30" value="" style="endArrow=classic;startArrow=classic;html=1;rounded=0;strokeWidth=2;" parent="8NljoQmVv1keE4PW_RnH-41" edge="1">
          <mxGeometry width="50" height="50" relative="1" as="geometry">
            <mxPoint x="704.83" y="340" as="sourcePoint" />
            <mxPoint x="704.83" y="310" as="targetPoint" />
          </mxGeometry>
        </mxCell>
        <mxCell id="-iRpj6bhHmE46wF5TIR2-31" value="" style="endArrow=classic;startArrow=classic;html=1;rounded=0;strokeWidth=2;" parent="8NljoQmVv1keE4PW_RnH-41" edge="1">
          <mxGeometry width="50" height="50" relative="1" as="geometry">
            <mxPoint x="914.74" y="340" as="sourcePoint" />
            <mxPoint x="914.74" y="310" as="targetPoint" />
          </mxGeometry>
        </mxCell>
        <mxCell id="-iRpj6bhHmE46wF5TIR2-32" value="" style="endArrow=classic;startArrow=classic;html=1;rounded=0;strokeWidth=2;" parent="8NljoQmVv1keE4PW_RnH-41" edge="1">
          <mxGeometry width="50" height="50" relative="1" as="geometry">
            <mxPoint x="960" y="273" as="sourcePoint" />
            <mxPoint x="960" y="243" as="targetPoint" />
          </mxGeometry>
        </mxCell>
        <mxCell id="-iRpj6bhHmE46wF5TIR2-33" value="" style="endArrow=classic;startArrow=classic;html=1;rounded=0;strokeWidth=2;exitX=0.5;exitY=0;exitDx=0;exitDy=0;" parent="8NljoQmVv1keE4PW_RnH-41" source="-iRpj6bhHmE46wF5TIR2-37" edge="1">
          <mxGeometry width="50" height="50" relative="1" as="geometry">
            <mxPoint x="810" y="400" as="sourcePoint" />
            <mxPoint x="810" y="370" as="targetPoint" />
          </mxGeometry>
        </mxCell>
        <mxCell id="-iRpj6bhHmE46wF5TIR2-34" value="" style="endArrow=classic;startArrow=classic;html=1;rounded=0;strokeWidth=2;" parent="8NljoQmVv1keE4PW_RnH-41" edge="1">
          <mxGeometry width="50" height="50" relative="1" as="geometry">
            <mxPoint x="870" y="273" as="sourcePoint" />
            <mxPoint x="870" y="243" as="targetPoint" />
          </mxGeometry>
        </mxCell>
        <mxCell id="-iRpj6bhHmE46wF5TIR2-35" value="" style="endArrow=classic;startArrow=classic;html=1;rounded=0;strokeWidth=2;" parent="8NljoQmVv1keE4PW_RnH-41" edge="1">
          <mxGeometry width="50" height="50" relative="1" as="geometry">
            <mxPoint x="749.78" y="273" as="sourcePoint" />
            <mxPoint x="749.78" y="243" as="targetPoint" />
          </mxGeometry>
        </mxCell>
        <mxCell id="-iRpj6bhHmE46wF5TIR2-36" value="" style="endArrow=classic;startArrow=classic;html=1;rounded=0;strokeWidth=2;" parent="8NljoQmVv1keE4PW_RnH-41" edge="1">
          <mxGeometry width="50" height="50" relative="1" as="geometry">
            <mxPoint x="659.78" y="273" as="sourcePoint" />
            <mxPoint x="659.78" y="243" as="targetPoint" />
          </mxGeometry>
        </mxCell>
        <mxCell id="-iRpj6bhHmE46wF5TIR2-37" value="&lt;font style=&quot;font-size: 14px;&quot; face=&quot;Times New Roman&quot;&gt;&lt;span&gt;Host Memory&lt;/span&gt;&lt;/font&gt;" style="rounded=0;whiteSpace=wrap;html=1;fillColor=#f8cecc;strokeColor=#b85450;fontStyle=0" parent="8NljoQmVv1keE4PW_RnH-41" vertex="1">
          <mxGeometry x="610" y="420" width="400" height="30" as="geometry" />
        </mxCell>
        <mxCell id="-iRpj6bhHmE46wF5TIR2-38" value="&lt;font style=&quot;font-size: 14px;&quot; face=&quot;Times New Roman&quot;&gt;&lt;span&gt;Global Memory and Constant Memory&lt;/span&gt;&lt;/font&gt;" style="rounded=0;whiteSpace=wrap;html=1;fillColor=#b1ddf0;strokeColor=#10739e;fontStyle=0" parent="8NljoQmVv1keE4PW_RnH-41" vertex="1">
          <mxGeometry x="610" y="340" width="400" height="30" as="geometry" />
        </mxCell>
        <mxCell id="-iRpj6bhHmE46wF5TIR2-39" value="&lt;font style=&quot;font-size: 14px;&quot; face=&quot;Times New Roman&quot;&gt;&lt;span&gt;Local Memory&lt;/span&gt;&lt;/font&gt;" style="rounded=0;whiteSpace=wrap;html=1;fillColor=#d5e8d4;strokeColor=#82b366;fontStyle=0" parent="8NljoQmVv1keE4PW_RnH-41" vertex="1">
          <mxGeometry x="830" y="273" width="170" height="30" as="geometry" />
        </mxCell>
        <mxCell id="-iRpj6bhHmE46wF5TIR2-40" value="&lt;font style=&quot;font-size: 14px;&quot; face=&quot;Times New Roman&quot;&gt;&lt;span&gt;Work-Item&lt;/span&gt;&lt;/font&gt;" style="rounded=0;whiteSpace=wrap;html=1;fillColor=#fff2cc;strokeColor=#d6b656;fontStyle=0" parent="8NljoQmVv1keE4PW_RnH-41" vertex="1">
          <mxGeometry x="830" y="213" width="80" height="30" as="geometry" />
        </mxCell>
        <mxCell id="-iRpj6bhHmE46wF5TIR2-41" value="&lt;font style=&quot;font-size: 14px;&quot; face=&quot;Times New Roman&quot;&gt;&lt;span&gt;Work-Item&lt;/span&gt;&lt;/font&gt;" style="rounded=0;whiteSpace=wrap;html=1;fillColor=#fff2cc;strokeColor=#d6b656;fontStyle=0" parent="8NljoQmVv1keE4PW_RnH-41" vertex="1">
          <mxGeometry x="920" y="213" width="80" height="30" as="geometry" />
        </mxCell>
        <mxCell id="-iRpj6bhHmE46wF5TIR2-42" value="&lt;p style=&quot;line-height: 110%;&quot;&gt;&lt;font style=&quot;font-size: 14px;&quot; face=&quot;Times New Roman&quot;&gt;&lt;span style=&quot;&quot;&gt;Private&lt;br&gt;Memory&lt;/span&gt;&lt;/font&gt;&lt;/p&gt;" style="rounded=0;whiteSpace=wrap;html=1;fillColor=#ffe6cc;strokeColor=#d79b00;fontSize=11;fontStyle=0" parent="8NljoQmVv1keE4PW_RnH-41" vertex="1">
          <mxGeometry x="920" y="178" width="80" height="30" as="geometry" />
        </mxCell>
        <mxCell id="-iRpj6bhHmE46wF5TIR2-43" value="&lt;p style=&quot;line-height: 110%;&quot;&gt;&lt;font style=&quot;font-size: 14px;&quot; face=&quot;Times New Roman&quot;&gt;&lt;span style=&quot;&quot;&gt;Private&lt;br&gt;Memory&lt;/span&gt;&lt;/font&gt;&lt;/p&gt;" style="rounded=0;whiteSpace=wrap;html=1;fillColor=#ffe6cc;strokeColor=#d79b00;fontSize=11;fontStyle=0" parent="8NljoQmVv1keE4PW_RnH-41" vertex="1">
          <mxGeometry x="830" y="178" width="80" height="30" as="geometry" />
        </mxCell>
        <mxCell id="-iRpj6bhHmE46wF5TIR2-44" value="&lt;font style=&quot;font-size: 14px;&quot; face=&quot;Times New Roman&quot;&gt;&lt;span&gt;Local Memory&lt;/span&gt;&lt;/font&gt;" style="rounded=0;whiteSpace=wrap;html=1;fillColor=#d5e8d4;strokeColor=#82b366;fontStyle=0" parent="8NljoQmVv1keE4PW_RnH-41" vertex="1">
          <mxGeometry x="620" y="273" width="170" height="30" as="geometry" />
        </mxCell>
        <mxCell id="-iRpj6bhHmE46wF5TIR2-45" value="&lt;font style=&quot;font-size: 14px;&quot; face=&quot;Times New Roman&quot;&gt;&lt;span&gt;Work-Item&lt;/span&gt;&lt;/font&gt;" style="rounded=0;whiteSpace=wrap;html=1;fillColor=#fff2cc;strokeColor=#d6b656;fontStyle=0" parent="8NljoQmVv1keE4PW_RnH-41" vertex="1">
          <mxGeometry x="620" y="213" width="80" height="30" as="geometry" />
        </mxCell>
        <mxCell id="-iRpj6bhHmE46wF5TIR2-46" value="&lt;font style=&quot;font-size: 14px;&quot; face=&quot;Times New Roman&quot;&gt;&lt;span&gt;Work-Item&lt;/span&gt;&lt;/font&gt;" style="rounded=0;whiteSpace=wrap;html=1;fillColor=#fff2cc;strokeColor=#d6b656;fontStyle=0" parent="8NljoQmVv1keE4PW_RnH-41" vertex="1">
          <mxGeometry x="710" y="213" width="80" height="30" as="geometry" />
        </mxCell>
        <mxCell id="-iRpj6bhHmE46wF5TIR2-47" value="&lt;p style=&quot;line-height: 110%;&quot;&gt;&lt;font style=&quot;font-size: 14px;&quot; face=&quot;Times New Roman&quot;&gt;&lt;span style=&quot;&quot;&gt;Private&lt;br&gt;Memory&lt;/span&gt;&lt;/font&gt;&lt;/p&gt;" style="rounded=0;whiteSpace=wrap;html=1;fillColor=#ffe6cc;strokeColor=#d79b00;fontSize=11;fontStyle=0" parent="8NljoQmVv1keE4PW_RnH-41" vertex="1">
          <mxGeometry x="710" y="178" width="80" height="30" as="geometry" />
        </mxCell>
        <mxCell id="-iRpj6bhHmE46wF5TIR2-48" value="&lt;p style=&quot;line-height: 110%;&quot;&gt;&lt;font style=&quot;font-size: 14px;&quot; face=&quot;Times New Roman&quot;&gt;&lt;span style=&quot;&quot;&gt;Private&lt;br style=&quot;&quot;&gt;Memory&lt;/span&gt;&lt;/font&gt;&lt;/p&gt;" style="rounded=0;whiteSpace=wrap;html=1;fillColor=#ffe6cc;strokeColor=#d79b00;fontSize=11;fontStyle=0" parent="8NljoQmVv1keE4PW_RnH-41" vertex="1">
          <mxGeometry x="620" y="178" width="80" height="30" as="geometry" />
        </mxCell>
        <mxCell id="8NljoQmVv1keE4PW_RnH-42" value="workgroup" parent="0" />
        <mxCell id="8NljoQmVv1keE4PW_RnH-29" value="&lt;font style=&quot;font-size: 14px;&quot; face=&quot;Times New Roman&quot;&gt;Work-Group&lt;/font&gt;" style="rounded=0;whiteSpace=wrap;html=1;verticalAlign=bottom;align=center;fontStyle=1" parent="8NljoQmVv1keE4PW_RnH-42" vertex="1">
          <mxGeometry x="320" y="140" width="190" height="160" as="geometry" />
        </mxCell>
        <mxCell id="8NljoQmVv1keE4PW_RnH-18" value="&lt;font style=&quot;font-size: 14px;&quot; face=&quot;Times New Roman&quot;&gt;Work-Group&lt;/font&gt;" style="rounded=0;whiteSpace=wrap;html=1;verticalAlign=bottom;align=center;fontStyle=1" parent="8NljoQmVv1keE4PW_RnH-42" vertex="1">
          <mxGeometry x="110" y="140" width="190" height="160" as="geometry" />
        </mxCell>
        <mxCell id="8NljoQmVv1keE4PW_RnH-51" value="" style="endArrow=classic;startArrow=classic;html=1;rounded=0;strokeWidth=2;" parent="8NljoQmVv1keE4PW_RnH-42" edge="1">
          <mxGeometry width="50" height="50" relative="1" as="geometry">
            <mxPoint x="204.83" y="330" as="sourcePoint" />
            <mxPoint x="204.83" y="300" as="targetPoint" />
          </mxGeometry>
        </mxCell>
        <mxCell id="8NljoQmVv1keE4PW_RnH-52" value="" style="endArrow=classic;startArrow=classic;html=1;rounded=0;strokeWidth=2;" parent="8NljoQmVv1keE4PW_RnH-42" edge="1">
          <mxGeometry width="50" height="50" relative="1" as="geometry">
            <mxPoint x="414.74000000000007" y="330" as="sourcePoint" />
            <mxPoint x="414.74000000000007" y="300" as="targetPoint" />
          </mxGeometry>
        </mxCell>
        <mxCell id="8NljoQmVv1keE4PW_RnH-62" value="" style="endArrow=classic;startArrow=classic;html=1;rounded=0;strokeWidth=2;" parent="8NljoQmVv1keE4PW_RnH-42" edge="1">
          <mxGeometry width="50" height="50" relative="1" as="geometry">
            <mxPoint x="459.99999999999994" y="245" as="sourcePoint" />
            <mxPoint x="460" y="215" as="targetPoint" />
          </mxGeometry>
        </mxCell>
        <mxCell id="8NljoQmVv1keE4PW_RnH-65" value="" style="endArrow=classic;startArrow=classic;html=1;rounded=0;strokeWidth=2;" parent="8NljoQmVv1keE4PW_RnH-42" edge="1">
          <mxGeometry width="50" height="50" relative="1" as="geometry">
            <mxPoint x="310.00000000000006" y="390" as="sourcePoint" />
            <mxPoint x="310.00000000000006" y="360" as="targetPoint" />
          </mxGeometry>
        </mxCell>
        <mxCell id="8NljoQmVv1keE4PW_RnH-66" value="" style="endArrow=classic;startArrow=classic;html=1;rounded=0;strokeWidth=2;" parent="8NljoQmVv1keE4PW_RnH-42" edge="1">
          <mxGeometry width="50" height="50" relative="1" as="geometry">
            <mxPoint x="369.99999999999994" y="245" as="sourcePoint" />
            <mxPoint x="370" y="215" as="targetPoint" />
          </mxGeometry>
        </mxCell>
        <mxCell id="8NljoQmVv1keE4PW_RnH-67" value="" style="endArrow=classic;startArrow=classic;html=1;rounded=0;strokeWidth=2;" parent="8NljoQmVv1keE4PW_RnH-42" edge="1">
          <mxGeometry width="50" height="50" relative="1" as="geometry">
            <mxPoint x="249.77999999999994" y="245" as="sourcePoint" />
            <mxPoint x="249.78" y="215" as="targetPoint" />
          </mxGeometry>
        </mxCell>
        <mxCell id="8NljoQmVv1keE4PW_RnH-68" value="" style="endArrow=classic;startArrow=classic;html=1;rounded=0;strokeWidth=2;" parent="8NljoQmVv1keE4PW_RnH-42" edge="1">
          <mxGeometry width="50" height="50" relative="1" as="geometry">
            <mxPoint x="159.77999999999994" y="245" as="sourcePoint" />
            <mxPoint x="159.78" y="215" as="targetPoint" />
          </mxGeometry>
        </mxCell>
        <mxCell id="1" value="memory" parent="0" />
        <mxCell id="zx083eCQ5wcBT4JsWsRx-2" value="&lt;font style=&quot;font-size: 14px;&quot; face=&quot;Times New Roman&quot;&gt;&lt;span&gt;Host Memory&lt;/span&gt;&lt;/font&gt;" style="rounded=0;whiteSpace=wrap;html=1;fillColor=#f8cecc;strokeColor=#b85450;fontStyle=0" parent="1" vertex="1">
          <mxGeometry x="110" y="390" width="400" height="30" as="geometry" />
        </mxCell>
        <mxCell id="8NljoQmVv1keE4PW_RnH-3" value="&lt;font style=&quot;font-size: 14px;&quot; face=&quot;Times New Roman&quot;&gt;&lt;span&gt;Global Memory and Constant Memory&lt;/span&gt;&lt;/font&gt;" style="rounded=0;whiteSpace=wrap;html=1;fillColor=#b1ddf0;strokeColor=#10739e;fontStyle=0" parent="1" vertex="1">
          <mxGeometry x="110" y="330" width="400" height="30" as="geometry" />
        </mxCell>
        <mxCell id="8NljoQmVv1keE4PW_RnH-30" value="&lt;font style=&quot;font-size: 14px;&quot; face=&quot;Times New Roman&quot;&gt;&lt;span&gt;Local Memory&lt;/span&gt;&lt;/font&gt;" style="rounded=0;whiteSpace=wrap;html=1;fillColor=#d5e8d4;strokeColor=#82b366;fontStyle=0" parent="1" vertex="1">
          <mxGeometry x="330" y="245" width="170" height="30" as="geometry" />
        </mxCell>
        <mxCell id="8NljoQmVv1keE4PW_RnH-31" value="&lt;font style=&quot;font-size: 14px;&quot; face=&quot;Times New Roman&quot;&gt;&lt;span&gt;Work-Item&lt;/span&gt;&lt;/font&gt;" style="rounded=0;whiteSpace=wrap;html=1;fillColor=#fff2cc;strokeColor=#d6b656;fontStyle=0" parent="1" vertex="1">
          <mxGeometry x="330" y="185" width="80" height="30" as="geometry" />
        </mxCell>
        <mxCell id="8NljoQmVv1keE4PW_RnH-32" value="&lt;font style=&quot;font-size: 14px;&quot; face=&quot;Times New Roman&quot;&gt;&lt;span&gt;Work-Item&lt;/span&gt;&lt;/font&gt;" style="rounded=0;whiteSpace=wrap;html=1;fillColor=#fff2cc;strokeColor=#d6b656;fontStyle=0" parent="1" vertex="1">
          <mxGeometry x="420" y="185" width="80" height="30" as="geometry" />
        </mxCell>
        <mxCell id="8NljoQmVv1keE4PW_RnH-33" value="&lt;p style=&quot;line-height: 110%;&quot;&gt;&lt;font style=&quot;font-size: 14px;&quot; face=&quot;Times New Roman&quot;&gt;&lt;span style=&quot;&quot;&gt;Private&lt;br&gt;Memory&lt;/span&gt;&lt;/font&gt;&lt;/p&gt;" style="rounded=0;whiteSpace=wrap;html=1;fillColor=#ffe6cc;strokeColor=#d79b00;fontSize=11;fontStyle=0" parent="1" vertex="1">
          <mxGeometry x="420" y="150" width="80" height="30" as="geometry" />
        </mxCell>
        <mxCell id="8NljoQmVv1keE4PW_RnH-34" value="&lt;p style=&quot;line-height: 110%;&quot;&gt;&lt;font style=&quot;font-size: 14px;&quot; face=&quot;Times New Roman&quot;&gt;&lt;span style=&quot;&quot;&gt;Private&lt;br&gt;Memory&lt;/span&gt;&lt;/font&gt;&lt;/p&gt;" style="rounded=0;whiteSpace=wrap;html=1;fillColor=#ffe6cc;strokeColor=#d79b00;fontSize=11;fontStyle=0" parent="1" vertex="1">
          <mxGeometry x="330" y="150" width="80" height="30" as="geometry" />
        </mxCell>
        <mxCell id="8NljoQmVv1keE4PW_RnH-20" value="&lt;font style=&quot;font-size: 14px;&quot; face=&quot;Times New Roman&quot;&gt;&lt;span&gt;Local Memory&lt;/span&gt;&lt;/font&gt;" style="rounded=0;whiteSpace=wrap;html=1;fillColor=#d5e8d4;strokeColor=#82b366;fontStyle=0" parent="1" vertex="1">
          <mxGeometry x="120" y="245" width="170" height="30" as="geometry" />
        </mxCell>
        <mxCell id="8NljoQmVv1keE4PW_RnH-21" value="&lt;font style=&quot;font-size: 14px;&quot; face=&quot;Times New Roman&quot;&gt;&lt;span&gt;Work-Item&lt;/span&gt;&lt;/font&gt;" style="rounded=0;whiteSpace=wrap;html=1;fillColor=#fff2cc;strokeColor=#d6b656;fontStyle=0" parent="1" vertex="1">
          <mxGeometry x="120" y="185" width="80" height="30" as="geometry" />
        </mxCell>
        <mxCell id="8NljoQmVv1keE4PW_RnH-22" value="&lt;font style=&quot;font-size: 14px;&quot; face=&quot;Times New Roman&quot;&gt;&lt;span&gt;Work-Item&lt;/span&gt;&lt;/font&gt;" style="rounded=0;whiteSpace=wrap;html=1;fillColor=#fff2cc;strokeColor=#d6b656;fontStyle=0" parent="1" vertex="1">
          <mxGeometry x="210" y="185" width="80" height="30" as="geometry" />
        </mxCell>
        <mxCell id="8NljoQmVv1keE4PW_RnH-23" value="&lt;p style=&quot;line-height: 110%;&quot;&gt;&lt;font style=&quot;font-size: 14px;&quot; face=&quot;Times New Roman&quot;&gt;&lt;span style=&quot;&quot;&gt;Private&lt;br&gt;Memory&lt;/span&gt;&lt;/font&gt;&lt;/p&gt;" style="rounded=0;whiteSpace=wrap;html=1;fillColor=#ffe6cc;strokeColor=#d79b00;fontSize=11;fontStyle=0" parent="1" vertex="1">
          <mxGeometry x="210" y="150" width="80" height="30" as="geometry" />
        </mxCell>
        <mxCell id="8NljoQmVv1keE4PW_RnH-24" value="&lt;p style=&quot;line-height: 110%;&quot;&gt;&lt;font style=&quot;font-size: 14px;&quot; face=&quot;Times New Roman&quot;&gt;&lt;span style=&quot;&quot;&gt;Private&lt;br style=&quot;&quot;&gt;Memory&lt;/span&gt;&lt;/font&gt;&lt;/p&gt;" style="rounded=0;whiteSpace=wrap;html=1;fillColor=#ffe6cc;strokeColor=#d79b00;fontSize=11;fontStyle=0" parent="1" vertex="1">
          <mxGeometry x="120" y="150" width="80" height="30" as="geometry" />
        </mxCell>
      </root>
    </mxGraphModel>
  </diagram>
  <diagram id="v710f1AzsmCAyrv0DK1K" name="work-group">
    <mxGraphModel dx="1446" dy="963" grid="1" gridSize="10" guides="1" tooltips="1" connect="1" arrows="1" fold="1" page="1" pageScale="1" pageWidth="1169" pageHeight="827" math="1" shadow="0">
      <root>
        <mxCell id="0" />
        <mxCell id="1" parent="0" />
        <mxCell id="k4aqoQIed_3reIs8EnuI-225" value="" style="whiteSpace=wrap;html=1;aspect=fixed;container=0;" parent="1" vertex="1">
          <mxGeometry x="73.5121271393643" y="490" width="256.82787286063564" height="256.82787286063564" as="geometry" />
        </mxCell>
        <mxCell id="Xv6KGDbKqZ_7mmxz0GXl-9" value="" style="endArrow=classic;startArrow=classic;html=1;rounded=0;strokeWidth=2;" parent="1" edge="1">
          <mxGeometry width="50" height="50" relative="1" as="geometry">
            <mxPoint x="61" y="746.8292682926829" as="sourcePoint" />
            <mxPoint x="61" y="490" as="targetPoint" />
          </mxGeometry>
        </mxCell>
        <mxCell id="Xv6KGDbKqZ_7mmxz0GXl-12" value="&lt;b style=&quot;font-size: 18px;&quot;&gt;NDRange size `G_y`&lt;/b&gt;" style="edgeLabel;html=1;align=center;verticalAlign=middle;resizable=0;points=[];horizontal=0;fontSize=18;container=0;labelBackgroundColor=none;" parent="Xv6KGDbKqZ_7mmxz0GXl-9" vertex="1" connectable="0">
          <mxGeometry x="-0.22" relative="1" as="geometry">
            <mxPoint x="-20" y="-28" as="offset" />
          </mxGeometry>
        </mxCell>
        <mxCell id="Xv6KGDbKqZ_7mmxz0GXl-10" value="" style="endArrow=classic;startArrow=classic;html=1;rounded=0;strokeWidth=2;fontStyle=1" parent="1" edge="1">
          <mxGeometry width="50" height="50" relative="1" as="geometry">
            <mxPoint x="73.5121271393643" y="760" as="sourcePoint" />
            <mxPoint x="330.34" y="760" as="targetPoint" />
          </mxGeometry>
        </mxCell>
        <mxCell id="Xv6KGDbKqZ_7mmxz0GXl-11" value="&lt;b style=&quot;font-size: 18px;&quot;&gt;NDRange size `G_x`&lt;/b&gt;" style="edgeLabel;html=1;align=center;verticalAlign=middle;resizable=0;points=[];fontSize=18;container=0;labelBackgroundColor=none;" parent="Xv6KGDbKqZ_7mmxz0GXl-10" vertex="1" connectable="0">
          <mxGeometry x="-0.0923" y="2" relative="1" as="geometry">
            <mxPoint x="12" y="22" as="offset" />
          </mxGeometry>
        </mxCell>
        <mxCell id="EkSB8nptQmgdFcWCz_d3-9" value="" style="rounded=0;whiteSpace=wrap;html=1;container=0;" parent="1" vertex="1">
          <mxGeometry x="86.68278728606356" y="557.5" width="18.109657701711487" height="18.109756097560975" as="geometry" />
        </mxCell>
        <mxCell id="EkSB8nptQmgdFcWCz_d3-10" value="" style="rounded=0;whiteSpace=wrap;html=1;container=0;" parent="1" vertex="1">
          <mxGeometry x="104.79244498777504" y="557.5" width="18.109657701711487" height="18.109756097560975" as="geometry" />
        </mxCell>
        <mxCell id="EkSB8nptQmgdFcWCz_d3-11" value="" style="rounded=0;whiteSpace=wrap;html=1;container=0;" parent="1" vertex="1">
          <mxGeometry x="122.90210268948653" y="557.5" width="18.109657701711487" height="18.109756097560975" as="geometry" />
        </mxCell>
        <mxCell id="EkSB8nptQmgdFcWCz_d3-12" value="" style="rounded=0;whiteSpace=wrap;html=1;container=0;" parent="1" vertex="1">
          <mxGeometry x="141.01176039119804" y="557.5" width="18.109657701711487" height="18.109756097560975" as="geometry" />
        </mxCell>
        <mxCell id="EkSB8nptQmgdFcWCz_d3-13" value="" style="rounded=0;whiteSpace=wrap;html=1;container=0;" parent="1" vertex="1">
          <mxGeometry x="86.68278728606356" y="539.390243902439" width="18.109657701711487" height="18.109756097560975" as="geometry" />
        </mxCell>
        <mxCell id="EkSB8nptQmgdFcWCz_d3-14" value="" style="rounded=0;whiteSpace=wrap;html=1;container=0;" parent="1" vertex="1">
          <mxGeometry x="104.79244498777504" y="539.390243902439" width="18.109657701711487" height="18.109756097560975" as="geometry" />
        </mxCell>
        <mxCell id="EkSB8nptQmgdFcWCz_d3-15" value="" style="rounded=0;whiteSpace=wrap;html=1;container=0;" parent="1" vertex="1">
          <mxGeometry x="122.90210268948653" y="539.390243902439" width="18.109657701711487" height="18.109756097560975" as="geometry" />
        </mxCell>
        <mxCell id="EkSB8nptQmgdFcWCz_d3-16" value="" style="rounded=0;whiteSpace=wrap;html=1;container=0;" parent="1" vertex="1">
          <mxGeometry x="141.01176039119804" y="539.390243902439" width="18.109657701711487" height="18.109756097560975" as="geometry" />
        </mxCell>
        <mxCell id="EkSB8nptQmgdFcWCz_d3-17" value="" style="rounded=0;whiteSpace=wrap;html=1;container=0;" parent="1" vertex="1">
          <mxGeometry x="86.68278728606356" y="521.280487804878" width="18.109657701711487" height="18.109756097560975" as="geometry" />
        </mxCell>
        <mxCell id="EkSB8nptQmgdFcWCz_d3-18" value="" style="rounded=0;whiteSpace=wrap;html=1;container=0;" parent="1" vertex="1">
          <mxGeometry x="104.79244498777504" y="521.280487804878" width="18.109657701711487" height="18.109756097560975" as="geometry" />
        </mxCell>
        <mxCell id="EkSB8nptQmgdFcWCz_d3-19" value="" style="rounded=0;whiteSpace=wrap;html=1;container=0;" parent="1" vertex="1">
          <mxGeometry x="122.90210268948653" y="521.280487804878" width="18.109657701711487" height="18.109756097560975" as="geometry" />
        </mxCell>
        <mxCell id="EkSB8nptQmgdFcWCz_d3-20" value="" style="rounded=0;whiteSpace=wrap;html=1;container=0;" parent="1" vertex="1">
          <mxGeometry x="141.01176039119804" y="521.280487804878" width="18.109657701711487" height="18.109756097560975" as="geometry" />
        </mxCell>
        <mxCell id="EkSB8nptQmgdFcWCz_d3-21" value="" style="rounded=0;whiteSpace=wrap;html=1;container=0;" parent="1" vertex="1">
          <mxGeometry x="86.68278728606356" y="503.1707317073171" width="18.109657701711487" height="18.109756097560975" as="geometry" />
        </mxCell>
        <mxCell id="EkSB8nptQmgdFcWCz_d3-22" value="" style="rounded=0;whiteSpace=wrap;html=1;container=0;" parent="1" vertex="1">
          <mxGeometry x="104.79244498777504" y="503.1707317073171" width="18.109657701711487" height="18.109756097560975" as="geometry" />
        </mxCell>
        <mxCell id="EkSB8nptQmgdFcWCz_d3-23" value="" style="rounded=0;whiteSpace=wrap;html=1;container=0;" parent="1" vertex="1">
          <mxGeometry x="122.90210268948653" y="503.1707317073171" width="18.109657701711487" height="18.109756097560975" as="geometry" />
        </mxCell>
        <mxCell id="EkSB8nptQmgdFcWCz_d3-24" value="" style="rounded=0;whiteSpace=wrap;html=1;container=0;" parent="1" vertex="1">
          <mxGeometry x="141.01176039119804" y="503.1707317073171" width="18.109657701711487" height="18.109756097560975" as="geometry" />
        </mxCell>
        <mxCell id="EkSB8nptQmgdFcWCz_d3-27" value="" style="rounded=0;whiteSpace=wrap;html=1;container=0;" parent="1" vertex="1">
          <mxGeometry x="165.70674816625916" y="557.5" width="18.109657701711487" height="18.109756097560975" as="geometry" />
        </mxCell>
        <mxCell id="EkSB8nptQmgdFcWCz_d3-28" value="" style="rounded=0;whiteSpace=wrap;html=1;container=0;" parent="1" vertex="1">
          <mxGeometry x="183.81640586797064" y="557.5" width="18.109657701711487" height="18.109756097560975" as="geometry" />
        </mxCell>
        <mxCell id="EkSB8nptQmgdFcWCz_d3-29" value="" style="rounded=0;whiteSpace=wrap;html=1;container=0;" parent="1" vertex="1">
          <mxGeometry x="201.92606356968213" y="557.5" width="18.109657701711487" height="18.109756097560975" as="geometry" />
        </mxCell>
        <mxCell id="EkSB8nptQmgdFcWCz_d3-30" value="" style="rounded=0;whiteSpace=wrap;html=1;container=0;" parent="1" vertex="1">
          <mxGeometry x="220.03572127139364" y="557.5" width="18.109657701711487" height="18.109756097560975" as="geometry" />
        </mxCell>
        <mxCell id="EkSB8nptQmgdFcWCz_d3-31" value="" style="rounded=0;whiteSpace=wrap;html=1;container=0;" parent="1" vertex="1">
          <mxGeometry x="165.70674816625916" y="539.390243902439" width="18.109657701711487" height="18.109756097560975" as="geometry" />
        </mxCell>
        <mxCell id="EkSB8nptQmgdFcWCz_d3-32" value="" style="rounded=0;whiteSpace=wrap;html=1;container=0;" parent="1" vertex="1">
          <mxGeometry x="183.81640586797064" y="539.390243902439" width="18.109657701711487" height="18.109756097560975" as="geometry" />
        </mxCell>
        <mxCell id="EkSB8nptQmgdFcWCz_d3-33" value="" style="rounded=0;whiteSpace=wrap;html=1;container=0;" parent="1" vertex="1">
          <mxGeometry x="201.92606356968213" y="539.390243902439" width="18.109657701711487" height="18.109756097560975" as="geometry" />
        </mxCell>
        <mxCell id="EkSB8nptQmgdFcWCz_d3-34" value="" style="rounded=0;whiteSpace=wrap;html=1;container=0;" parent="1" vertex="1">
          <mxGeometry x="220.03572127139364" y="539.390243902439" width="18.109657701711487" height="18.109756097560975" as="geometry" />
        </mxCell>
        <mxCell id="EkSB8nptQmgdFcWCz_d3-35" value="" style="rounded=0;whiteSpace=wrap;html=1;container=0;" parent="1" vertex="1">
          <mxGeometry x="165.70674816625916" y="521.280487804878" width="18.109657701711487" height="18.109756097560975" as="geometry" />
        </mxCell>
        <mxCell id="EkSB8nptQmgdFcWCz_d3-36" value="" style="rounded=0;whiteSpace=wrap;html=1;container=0;" parent="1" vertex="1">
          <mxGeometry x="183.81640586797064" y="521.280487804878" width="18.109657701711487" height="18.109756097560975" as="geometry" />
        </mxCell>
        <mxCell id="EkSB8nptQmgdFcWCz_d3-37" value="" style="rounded=0;whiteSpace=wrap;html=1;container=0;" parent="1" vertex="1">
          <mxGeometry x="201.92606356968213" y="521.280487804878" width="18.109657701711487" height="18.109756097560975" as="geometry" />
        </mxCell>
        <mxCell id="EkSB8nptQmgdFcWCz_d3-38" value="" style="rounded=0;whiteSpace=wrap;html=1;container=0;" parent="1" vertex="1">
          <mxGeometry x="220.03572127139364" y="521.280487804878" width="18.109657701711487" height="18.109756097560975" as="geometry" />
        </mxCell>
        <mxCell id="EkSB8nptQmgdFcWCz_d3-39" value="" style="rounded=0;whiteSpace=wrap;html=1;container=0;" parent="1" vertex="1">
          <mxGeometry x="165.70674816625916" y="503.1707317073171" width="18.109657701711487" height="18.109756097560975" as="geometry" />
        </mxCell>
        <mxCell id="EkSB8nptQmgdFcWCz_d3-40" value="" style="rounded=0;whiteSpace=wrap;html=1;container=0;" parent="1" vertex="1">
          <mxGeometry x="183.81640586797064" y="503.1707317073171" width="18.109657701711487" height="18.109756097560975" as="geometry" />
        </mxCell>
        <mxCell id="EkSB8nptQmgdFcWCz_d3-41" value="" style="rounded=0;whiteSpace=wrap;html=1;container=0;" parent="1" vertex="1">
          <mxGeometry x="201.92606356968213" y="503.1707317073171" width="18.109657701711487" height="18.109756097560975" as="geometry" />
        </mxCell>
        <mxCell id="EkSB8nptQmgdFcWCz_d3-42" value="" style="rounded=0;whiteSpace=wrap;html=1;container=0;" parent="1" vertex="1">
          <mxGeometry x="220.03572127139364" y="503.1707317073171" width="18.109657701711487" height="18.109756097560975" as="geometry" />
        </mxCell>
        <mxCell id="EkSB8nptQmgdFcWCz_d3-44" value="" style="rounded=0;whiteSpace=wrap;html=1;container=0;" parent="1" vertex="1">
          <mxGeometry x="244.73070904645473" y="557.5" width="18.109657701711487" height="18.109756097560975" as="geometry" />
        </mxCell>
        <mxCell id="EkSB8nptQmgdFcWCz_d3-45" value="" style="rounded=0;whiteSpace=wrap;html=1;container=0;" parent="1" vertex="1">
          <mxGeometry x="262.8403667481662" y="557.5" width="18.109657701711487" height="18.109756097560975" as="geometry" />
        </mxCell>
        <mxCell id="EkSB8nptQmgdFcWCz_d3-46" value="" style="rounded=0;whiteSpace=wrap;html=1;container=0;" parent="1" vertex="1">
          <mxGeometry x="280.95002444987773" y="557.5" width="18.109657701711487" height="18.109756097560975" as="geometry" />
        </mxCell>
        <mxCell id="EkSB8nptQmgdFcWCz_d3-47" value="" style="rounded=0;whiteSpace=wrap;html=1;container=0;" parent="1" vertex="1">
          <mxGeometry x="299.0596821515892" y="557.5" width="18.109657701711487" height="18.109756097560975" as="geometry" />
        </mxCell>
        <mxCell id="EkSB8nptQmgdFcWCz_d3-48" value="" style="rounded=0;whiteSpace=wrap;html=1;container=0;" parent="1" vertex="1">
          <mxGeometry x="244.73070904645473" y="539.390243902439" width="18.109657701711487" height="18.109756097560975" as="geometry" />
        </mxCell>
        <mxCell id="EkSB8nptQmgdFcWCz_d3-49" value="" style="rounded=0;whiteSpace=wrap;html=1;container=0;" parent="1" vertex="1">
          <mxGeometry x="262.8403667481662" y="539.390243902439" width="18.109657701711487" height="18.109756097560975" as="geometry" />
        </mxCell>
        <mxCell id="EkSB8nptQmgdFcWCz_d3-50" value="" style="rounded=0;whiteSpace=wrap;html=1;container=0;" parent="1" vertex="1">
          <mxGeometry x="280.95002444987773" y="539.390243902439" width="18.109657701711487" height="18.109756097560975" as="geometry" />
        </mxCell>
        <mxCell id="EkSB8nptQmgdFcWCz_d3-51" value="" style="rounded=0;whiteSpace=wrap;html=1;container=0;" parent="1" vertex="1">
          <mxGeometry x="299.0596821515892" y="539.390243902439" width="18.109657701711487" height="18.109756097560975" as="geometry" />
        </mxCell>
        <mxCell id="EkSB8nptQmgdFcWCz_d3-52" value="" style="rounded=0;whiteSpace=wrap;html=1;container=0;" parent="1" vertex="1">
          <mxGeometry x="244.73070904645473" y="521.280487804878" width="18.109657701711487" height="18.109756097560975" as="geometry" />
        </mxCell>
        <mxCell id="EkSB8nptQmgdFcWCz_d3-53" value="" style="rounded=0;whiteSpace=wrap;html=1;container=0;" parent="1" vertex="1">
          <mxGeometry x="262.8403667481662" y="521.280487804878" width="18.109657701711487" height="18.109756097560975" as="geometry" />
        </mxCell>
        <mxCell id="EkSB8nptQmgdFcWCz_d3-54" value="" style="rounded=0;whiteSpace=wrap;html=1;container=0;" parent="1" vertex="1">
          <mxGeometry x="280.95002444987773" y="521.280487804878" width="18.109657701711487" height="18.109756097560975" as="geometry" />
        </mxCell>
        <mxCell id="EkSB8nptQmgdFcWCz_d3-55" value="" style="rounded=0;whiteSpace=wrap;html=1;container=0;" parent="1" vertex="1">
          <mxGeometry x="299.0596821515892" y="521.280487804878" width="18.109657701711487" height="18.109756097560975" as="geometry" />
        </mxCell>
        <mxCell id="EkSB8nptQmgdFcWCz_d3-56" value="" style="rounded=0;whiteSpace=wrap;html=1;container=0;" parent="1" vertex="1">
          <mxGeometry x="244.73070904645473" y="503.1707317073171" width="18.109657701711487" height="18.109756097560975" as="geometry" />
        </mxCell>
        <mxCell id="EkSB8nptQmgdFcWCz_d3-57" value="" style="rounded=0;whiteSpace=wrap;html=1;container=0;" parent="1" vertex="1">
          <mxGeometry x="262.8403667481662" y="503.1707317073171" width="18.109657701711487" height="18.109756097560975" as="geometry" />
        </mxCell>
        <mxCell id="EkSB8nptQmgdFcWCz_d3-58" value="" style="rounded=0;whiteSpace=wrap;html=1;container=0;" parent="1" vertex="1">
          <mxGeometry x="280.95002444987773" y="503.1707317073171" width="18.109657701711487" height="18.109756097560975" as="geometry" />
        </mxCell>
        <mxCell id="EkSB8nptQmgdFcWCz_d3-59" value="" style="rounded=0;whiteSpace=wrap;html=1;container=0;" parent="1" vertex="1">
          <mxGeometry x="299.0596821515892" y="503.1707317073171" width="18.109657701711487" height="18.109756097560975" as="geometry" />
        </mxCell>
        <mxCell id="EkSB8nptQmgdFcWCz_d3-95" value="" style="rounded=0;whiteSpace=wrap;html=1;container=0;" parent="1" vertex="1">
          <mxGeometry x="244.73070904645473" y="636.5243902439025" width="18.109657701711487" height="18.109756097560975" as="geometry" />
        </mxCell>
        <mxCell id="EkSB8nptQmgdFcWCz_d3-96" value="" style="rounded=0;whiteSpace=wrap;html=1;container=0;" parent="1" vertex="1">
          <mxGeometry x="262.8403667481662" y="636.5243902439025" width="18.109657701711487" height="18.109756097560975" as="geometry" />
        </mxCell>
        <mxCell id="EkSB8nptQmgdFcWCz_d3-97" value="" style="rounded=0;whiteSpace=wrap;html=1;container=0;" parent="1" vertex="1">
          <mxGeometry x="280.95002444987773" y="636.5243902439025" width="18.109657701711487" height="18.109756097560975" as="geometry" />
        </mxCell>
        <mxCell id="EkSB8nptQmgdFcWCz_d3-98" value="" style="rounded=0;whiteSpace=wrap;html=1;container=0;" parent="1" vertex="1">
          <mxGeometry x="299.0596821515892" y="636.5243902439025" width="18.109657701711487" height="18.109756097560975" as="geometry" />
        </mxCell>
        <mxCell id="EkSB8nptQmgdFcWCz_d3-99" value="" style="rounded=0;whiteSpace=wrap;html=1;container=0;" parent="1" vertex="1">
          <mxGeometry x="244.73070904645473" y="618.4146341463415" width="18.109657701711487" height="18.109756097560975" as="geometry" />
        </mxCell>
        <mxCell id="EkSB8nptQmgdFcWCz_d3-100" value="" style="rounded=0;whiteSpace=wrap;html=1;container=0;" parent="1" vertex="1">
          <mxGeometry x="262.8403667481662" y="618.4146341463415" width="18.109657701711487" height="18.109756097560975" as="geometry" />
        </mxCell>
        <mxCell id="EkSB8nptQmgdFcWCz_d3-101" value="" style="rounded=0;whiteSpace=wrap;html=1;container=0;" parent="1" vertex="1">
          <mxGeometry x="280.95002444987773" y="618.4146341463415" width="18.109657701711487" height="18.109756097560975" as="geometry" />
        </mxCell>
        <mxCell id="EkSB8nptQmgdFcWCz_d3-102" value="" style="rounded=0;whiteSpace=wrap;html=1;container=0;" parent="1" vertex="1">
          <mxGeometry x="299.0596821515892" y="618.4146341463415" width="18.109657701711487" height="18.109756097560975" as="geometry" />
        </mxCell>
        <mxCell id="EkSB8nptQmgdFcWCz_d3-103" value="" style="rounded=0;whiteSpace=wrap;html=1;container=0;" parent="1" vertex="1">
          <mxGeometry x="244.73070904645473" y="600.3048780487806" width="18.109657701711487" height="18.109756097560975" as="geometry" />
        </mxCell>
        <mxCell id="EkSB8nptQmgdFcWCz_d3-104" value="" style="rounded=0;whiteSpace=wrap;html=1;container=0;" parent="1" vertex="1">
          <mxGeometry x="262.8403667481662" y="600.3048780487806" width="18.109657701711487" height="18.109756097560975" as="geometry" />
        </mxCell>
        <mxCell id="EkSB8nptQmgdFcWCz_d3-105" value="" style="rounded=0;whiteSpace=wrap;html=1;container=0;" parent="1" vertex="1">
          <mxGeometry x="280.95002444987773" y="600.3048780487806" width="18.109657701711487" height="18.109756097560975" as="geometry" />
        </mxCell>
        <mxCell id="EkSB8nptQmgdFcWCz_d3-106" value="" style="rounded=0;whiteSpace=wrap;html=1;container=0;" parent="1" vertex="1">
          <mxGeometry x="299.0596821515892" y="600.3048780487806" width="18.109657701711487" height="18.109756097560975" as="geometry" />
        </mxCell>
        <mxCell id="EkSB8nptQmgdFcWCz_d3-107" value="" style="rounded=0;whiteSpace=wrap;html=1;container=0;" parent="1" vertex="1">
          <mxGeometry x="244.73070904645473" y="582.1951219512196" width="18.109657701711487" height="18.109756097560975" as="geometry" />
        </mxCell>
        <mxCell id="EkSB8nptQmgdFcWCz_d3-108" value="" style="rounded=0;whiteSpace=wrap;html=1;container=0;" parent="1" vertex="1">
          <mxGeometry x="262.8403667481662" y="582.1951219512196" width="18.109657701711487" height="18.109756097560975" as="geometry" />
        </mxCell>
        <mxCell id="EkSB8nptQmgdFcWCz_d3-109" value="" style="rounded=0;whiteSpace=wrap;html=1;container=0;" parent="1" vertex="1">
          <mxGeometry x="280.95002444987773" y="582.1951219512196" width="18.109657701711487" height="18.109756097560975" as="geometry" />
        </mxCell>
        <mxCell id="EkSB8nptQmgdFcWCz_d3-110" value="" style="rounded=0;whiteSpace=wrap;html=1;container=0;" parent="1" vertex="1">
          <mxGeometry x="299.0596821515892" y="582.1951219512196" width="18.109657701711487" height="18.109756097560975" as="geometry" />
        </mxCell>
        <mxCell id="EkSB8nptQmgdFcWCz_d3-78" value="" style="rounded=0;whiteSpace=wrap;html=1;container=0;" parent="1" vertex="1">
          <mxGeometry x="165.70674816625916" y="636.5243902439025" width="18.109657701711487" height="18.109756097560975" as="geometry" />
        </mxCell>
        <mxCell id="EkSB8nptQmgdFcWCz_d3-79" value="" style="rounded=0;whiteSpace=wrap;html=1;container=0;" parent="1" vertex="1">
          <mxGeometry x="183.81640586797064" y="636.5243902439025" width="18.109657701711487" height="18.109756097560975" as="geometry" />
        </mxCell>
        <mxCell id="EkSB8nptQmgdFcWCz_d3-80" value="" style="rounded=0;whiteSpace=wrap;html=1;container=0;" parent="1" vertex="1">
          <mxGeometry x="201.92606356968213" y="636.5243902439025" width="18.109657701711487" height="18.109756097560975" as="geometry" />
        </mxCell>
        <mxCell id="EkSB8nptQmgdFcWCz_d3-81" value="" style="rounded=0;whiteSpace=wrap;html=1;container=0;" parent="1" vertex="1">
          <mxGeometry x="220.03572127139364" y="636.5243902439025" width="18.109657701711487" height="18.109756097560975" as="geometry" />
        </mxCell>
        <mxCell id="EkSB8nptQmgdFcWCz_d3-82" value="" style="rounded=0;whiteSpace=wrap;html=1;container=0;" parent="1" vertex="1">
          <mxGeometry x="165.70674816625916" y="618.4146341463415" width="18.109657701711487" height="18.109756097560975" as="geometry" />
        </mxCell>
        <mxCell id="EkSB8nptQmgdFcWCz_d3-83" value="" style="rounded=0;whiteSpace=wrap;html=1;container=0;" parent="1" vertex="1">
          <mxGeometry x="183.81640586797064" y="618.4146341463415" width="18.109657701711487" height="18.109756097560975" as="geometry" />
        </mxCell>
        <mxCell id="EkSB8nptQmgdFcWCz_d3-84" value="" style="rounded=0;whiteSpace=wrap;html=1;container=0;" parent="1" vertex="1">
          <mxGeometry x="201.92606356968213" y="618.4146341463415" width="18.109657701711487" height="18.109756097560975" as="geometry" />
        </mxCell>
        <mxCell id="EkSB8nptQmgdFcWCz_d3-85" value="" style="rounded=0;whiteSpace=wrap;html=1;container=0;" parent="1" vertex="1">
          <mxGeometry x="220.03572127139364" y="618.4146341463415" width="18.109657701711487" height="18.109756097560975" as="geometry" />
        </mxCell>
        <mxCell id="EkSB8nptQmgdFcWCz_d3-86" value="" style="rounded=0;whiteSpace=wrap;html=1;container=0;" parent="1" vertex="1">
          <mxGeometry x="165.70674816625916" y="600.3048780487806" width="18.109657701711487" height="18.109756097560975" as="geometry" />
        </mxCell>
        <mxCell id="EkSB8nptQmgdFcWCz_d3-87" value="" style="rounded=0;whiteSpace=wrap;html=1;container=0;" parent="1" vertex="1">
          <mxGeometry x="183.81640586797064" y="600.3048780487806" width="18.109657701711487" height="18.109756097560975" as="geometry" />
        </mxCell>
        <mxCell id="EkSB8nptQmgdFcWCz_d3-88" value="" style="rounded=0;whiteSpace=wrap;html=1;container=0;" parent="1" vertex="1">
          <mxGeometry x="201.92606356968213" y="600.3048780487806" width="18.109657701711487" height="18.109756097560975" as="geometry" />
        </mxCell>
        <mxCell id="EkSB8nptQmgdFcWCz_d3-89" value="" style="rounded=0;whiteSpace=wrap;html=1;container=0;" parent="1" vertex="1">
          <mxGeometry x="220.03572127139364" y="600.3048780487806" width="18.109657701711487" height="18.109756097560975" as="geometry" />
        </mxCell>
        <mxCell id="EkSB8nptQmgdFcWCz_d3-90" value="" style="rounded=0;whiteSpace=wrap;html=1;container=0;" parent="1" vertex="1">
          <mxGeometry x="165.70674816625916" y="582.1951219512196" width="18.109657701711487" height="18.109756097560975" as="geometry" />
        </mxCell>
        <mxCell id="EkSB8nptQmgdFcWCz_d3-91" value="" style="rounded=0;whiteSpace=wrap;html=1;container=0;" parent="1" vertex="1">
          <mxGeometry x="183.81640586797064" y="582.1951219512196" width="18.109657701711487" height="18.109756097560975" as="geometry" />
        </mxCell>
        <mxCell id="EkSB8nptQmgdFcWCz_d3-92" value="" style="rounded=0;whiteSpace=wrap;html=1;container=0;" parent="1" vertex="1">
          <mxGeometry x="201.92606356968213" y="582.1951219512196" width="18.109657701711487" height="18.109756097560975" as="geometry" />
        </mxCell>
        <mxCell id="EkSB8nptQmgdFcWCz_d3-93" value="" style="rounded=0;whiteSpace=wrap;html=1;container=0;" parent="1" vertex="1">
          <mxGeometry x="220.03572127139364" y="582.1951219512196" width="18.109657701711487" height="18.109756097560975" as="geometry" />
        </mxCell>
        <mxCell id="EkSB8nptQmgdFcWCz_d3-61" value="" style="rounded=0;whiteSpace=wrap;html=1;container=0;" parent="1" vertex="1">
          <mxGeometry x="86.68278728606356" y="636.5243902439025" width="18.109657701711487" height="18.109756097560975" as="geometry" />
        </mxCell>
        <mxCell id="EkSB8nptQmgdFcWCz_d3-62" value="" style="rounded=0;whiteSpace=wrap;html=1;container=0;" parent="1" vertex="1">
          <mxGeometry x="104.79244498777504" y="636.5243902439025" width="18.109657701711487" height="18.109756097560975" as="geometry" />
        </mxCell>
        <mxCell id="EkSB8nptQmgdFcWCz_d3-63" value="" style="rounded=0;whiteSpace=wrap;html=1;container=0;" parent="1" vertex="1">
          <mxGeometry x="122.90210268948653" y="636.5243902439025" width="18.109657701711487" height="18.109756097560975" as="geometry" />
        </mxCell>
        <mxCell id="EkSB8nptQmgdFcWCz_d3-64" value="" style="rounded=0;whiteSpace=wrap;html=1;container=0;" parent="1" vertex="1">
          <mxGeometry x="141.01176039119804" y="636.5243902439025" width="18.109657701711487" height="18.109756097560975" as="geometry" />
        </mxCell>
        <mxCell id="EkSB8nptQmgdFcWCz_d3-65" value="" style="rounded=0;whiteSpace=wrap;html=1;container=0;" parent="1" vertex="1">
          <mxGeometry x="86.68278728606356" y="618.4146341463415" width="18.109657701711487" height="18.109756097560975" as="geometry" />
        </mxCell>
        <mxCell id="EkSB8nptQmgdFcWCz_d3-66" value="" style="rounded=0;whiteSpace=wrap;html=1;container=0;" parent="1" vertex="1">
          <mxGeometry x="104.79244498777504" y="618.4146341463415" width="18.109657701711487" height="18.109756097560975" as="geometry" />
        </mxCell>
        <mxCell id="EkSB8nptQmgdFcWCz_d3-67" value="" style="rounded=0;whiteSpace=wrap;html=1;container=0;" parent="1" vertex="1">
          <mxGeometry x="122.90210268948653" y="618.4146341463415" width="18.109657701711487" height="18.109756097560975" as="geometry" />
        </mxCell>
        <mxCell id="EkSB8nptQmgdFcWCz_d3-68" value="" style="rounded=0;whiteSpace=wrap;html=1;container=0;" parent="1" vertex="1">
          <mxGeometry x="141.01176039119804" y="618.4146341463415" width="18.109657701711487" height="18.109756097560975" as="geometry" />
        </mxCell>
        <mxCell id="EkSB8nptQmgdFcWCz_d3-69" value="" style="rounded=0;whiteSpace=wrap;html=1;container=0;" parent="1" vertex="1">
          <mxGeometry x="86.68278728606356" y="600.3048780487806" width="18.109657701711487" height="18.109756097560975" as="geometry" />
        </mxCell>
        <mxCell id="EkSB8nptQmgdFcWCz_d3-70" value="" style="rounded=0;whiteSpace=wrap;html=1;container=0;" parent="1" vertex="1">
          <mxGeometry x="104.79244498777504" y="600.3048780487806" width="18.109657701711487" height="18.109756097560975" as="geometry" />
        </mxCell>
        <mxCell id="EkSB8nptQmgdFcWCz_d3-71" value="" style="rounded=0;whiteSpace=wrap;html=1;container=0;" parent="1" vertex="1">
          <mxGeometry x="122.90210268948653" y="600.3048780487806" width="18.109657701711487" height="18.109756097560975" as="geometry" />
        </mxCell>
        <mxCell id="EkSB8nptQmgdFcWCz_d3-72" value="" style="rounded=0;whiteSpace=wrap;html=1;container=0;" parent="1" vertex="1">
          <mxGeometry x="141.01176039119804" y="600.3048780487806" width="18.109657701711487" height="18.109756097560975" as="geometry" />
        </mxCell>
        <mxCell id="EkSB8nptQmgdFcWCz_d3-73" value="" style="rounded=0;whiteSpace=wrap;html=1;container=0;" parent="1" vertex="1">
          <mxGeometry x="86.68278728606356" y="582.1951219512196" width="18.109657701711487" height="18.109756097560975" as="geometry" />
        </mxCell>
        <mxCell id="EkSB8nptQmgdFcWCz_d3-74" value="" style="rounded=0;whiteSpace=wrap;html=1;container=0;" parent="1" vertex="1">
          <mxGeometry x="104.79244498777504" y="582.1951219512196" width="18.109657701711487" height="18.109756097560975" as="geometry" />
        </mxCell>
        <mxCell id="EkSB8nptQmgdFcWCz_d3-75" value="" style="rounded=0;whiteSpace=wrap;html=1;container=0;" parent="1" vertex="1">
          <mxGeometry x="122.90210268948653" y="582.1951219512196" width="18.109657701711487" height="18.109756097560975" as="geometry" />
        </mxCell>
        <mxCell id="EkSB8nptQmgdFcWCz_d3-76" value="" style="rounded=0;whiteSpace=wrap;html=1;container=0;" parent="1" vertex="1">
          <mxGeometry x="141.01176039119804" y="582.1951219512196" width="18.109657701711487" height="18.109756097560975" as="geometry" />
        </mxCell>
        <mxCell id="EkSB8nptQmgdFcWCz_d3-112" value="" style="rounded=0;whiteSpace=wrap;html=1;container=0;" parent="1" vertex="1">
          <mxGeometry x="86.68278728606356" y="715.548780487805" width="18.109657701711487" height="18.109756097560975" as="geometry" />
        </mxCell>
        <mxCell id="EkSB8nptQmgdFcWCz_d3-113" value="" style="rounded=0;whiteSpace=wrap;html=1;container=0;" parent="1" vertex="1">
          <mxGeometry x="104.79244498777504" y="715.548780487805" width="18.109657701711487" height="18.109756097560975" as="geometry" />
        </mxCell>
        <mxCell id="EkSB8nptQmgdFcWCz_d3-114" value="" style="rounded=0;whiteSpace=wrap;html=1;container=0;" parent="1" vertex="1">
          <mxGeometry x="122.90210268948653" y="715.548780487805" width="18.109657701711487" height="18.109756097560975" as="geometry" />
        </mxCell>
        <mxCell id="EkSB8nptQmgdFcWCz_d3-115" value="" style="rounded=0;whiteSpace=wrap;html=1;container=0;" parent="1" vertex="1">
          <mxGeometry x="141.01176039119804" y="715.548780487805" width="18.109657701711487" height="18.109756097560975" as="geometry" />
        </mxCell>
        <mxCell id="EkSB8nptQmgdFcWCz_d3-116" value="" style="rounded=0;whiteSpace=wrap;html=1;container=0;" parent="1" vertex="1">
          <mxGeometry x="86.68278728606356" y="697.439024390244" width="18.109657701711487" height="18.109756097560975" as="geometry" />
        </mxCell>
        <mxCell id="EkSB8nptQmgdFcWCz_d3-117" value="" style="rounded=0;whiteSpace=wrap;html=1;container=0;" parent="1" vertex="1">
          <mxGeometry x="104.79244498777504" y="697.439024390244" width="18.109657701711487" height="18.109756097560975" as="geometry" />
        </mxCell>
        <mxCell id="EkSB8nptQmgdFcWCz_d3-118" value="" style="rounded=0;whiteSpace=wrap;html=1;container=0;" parent="1" vertex="1">
          <mxGeometry x="122.90210268948653" y="697.439024390244" width="18.109657701711487" height="18.109756097560975" as="geometry" />
        </mxCell>
        <mxCell id="EkSB8nptQmgdFcWCz_d3-119" value="" style="rounded=0;whiteSpace=wrap;html=1;container=0;" parent="1" vertex="1">
          <mxGeometry x="141.01176039119804" y="697.439024390244" width="18.109657701711487" height="18.109756097560975" as="geometry" />
        </mxCell>
        <mxCell id="EkSB8nptQmgdFcWCz_d3-120" value="" style="rounded=0;whiteSpace=wrap;html=1;container=0;" parent="1" vertex="1">
          <mxGeometry x="86.68278728606356" y="679.329268292683" width="18.109657701711487" height="18.109756097560975" as="geometry" />
        </mxCell>
        <mxCell id="EkSB8nptQmgdFcWCz_d3-121" value="" style="rounded=0;whiteSpace=wrap;html=1;container=0;" parent="1" vertex="1">
          <mxGeometry x="104.79244498777504" y="679.329268292683" width="18.109657701711487" height="18.109756097560975" as="geometry" />
        </mxCell>
        <mxCell id="EkSB8nptQmgdFcWCz_d3-122" value="" style="rounded=0;whiteSpace=wrap;html=1;container=0;" parent="1" vertex="1">
          <mxGeometry x="122.90210268948653" y="679.329268292683" width="18.109657701711487" height="18.109756097560975" as="geometry" />
        </mxCell>
        <mxCell id="EkSB8nptQmgdFcWCz_d3-123" value="" style="rounded=0;whiteSpace=wrap;html=1;container=0;" parent="1" vertex="1">
          <mxGeometry x="141.01176039119804" y="679.329268292683" width="18.109657701711487" height="18.109756097560975" as="geometry" />
        </mxCell>
        <mxCell id="EkSB8nptQmgdFcWCz_d3-124" value="" style="rounded=0;whiteSpace=wrap;html=1;container=0;" parent="1" vertex="1">
          <mxGeometry x="86.68278728606356" y="661.219512195122" width="18.109657701711487" height="18.109756097560975" as="geometry" />
        </mxCell>
        <mxCell id="EkSB8nptQmgdFcWCz_d3-125" value="" style="rounded=0;whiteSpace=wrap;html=1;container=0;" parent="1" vertex="1">
          <mxGeometry x="104.79244498777504" y="661.219512195122" width="18.109657701711487" height="18.109756097560975" as="geometry" />
        </mxCell>
        <mxCell id="EkSB8nptQmgdFcWCz_d3-126" value="" style="rounded=0;whiteSpace=wrap;html=1;container=0;" parent="1" vertex="1">
          <mxGeometry x="122.90210268948653" y="661.219512195122" width="18.109657701711487" height="18.109756097560975" as="geometry" />
        </mxCell>
        <mxCell id="EkSB8nptQmgdFcWCz_d3-127" value="" style="rounded=0;whiteSpace=wrap;html=1;container=0;" parent="1" vertex="1">
          <mxGeometry x="141.01176039119804" y="661.219512195122" width="18.109657701711487" height="18.109756097560975" as="geometry" />
        </mxCell>
        <mxCell id="EkSB8nptQmgdFcWCz_d3-129" value="" style="rounded=0;whiteSpace=wrap;html=1;container=0;" parent="1" vertex="1">
          <mxGeometry x="165.70674816625916" y="715.548780487805" width="18.109657701711487" height="18.109756097560975" as="geometry" />
        </mxCell>
        <mxCell id="EkSB8nptQmgdFcWCz_d3-130" value="" style="rounded=0;whiteSpace=wrap;html=1;container=0;" parent="1" vertex="1">
          <mxGeometry x="183.81640586797064" y="715.548780487805" width="18.109657701711487" height="18.109756097560975" as="geometry" />
        </mxCell>
        <mxCell id="EkSB8nptQmgdFcWCz_d3-131" value="" style="rounded=0;whiteSpace=wrap;html=1;container=0;" parent="1" vertex="1">
          <mxGeometry x="201.92606356968213" y="715.548780487805" width="18.109657701711487" height="18.109756097560975" as="geometry" />
        </mxCell>
        <mxCell id="EkSB8nptQmgdFcWCz_d3-132" value="" style="rounded=0;whiteSpace=wrap;html=1;container=0;" parent="1" vertex="1">
          <mxGeometry x="220.03572127139364" y="715.548780487805" width="18.109657701711487" height="18.109756097560975" as="geometry" />
        </mxCell>
        <mxCell id="EkSB8nptQmgdFcWCz_d3-133" value="" style="rounded=0;whiteSpace=wrap;html=1;container=0;" parent="1" vertex="1">
          <mxGeometry x="165.70674816625916" y="697.439024390244" width="18.109657701711487" height="18.109756097560975" as="geometry" />
        </mxCell>
        <mxCell id="EkSB8nptQmgdFcWCz_d3-134" value="" style="rounded=0;whiteSpace=wrap;html=1;container=0;" parent="1" vertex="1">
          <mxGeometry x="183.81640586797064" y="697.439024390244" width="18.109657701711487" height="18.109756097560975" as="geometry" />
        </mxCell>
        <mxCell id="EkSB8nptQmgdFcWCz_d3-135" value="" style="rounded=0;whiteSpace=wrap;html=1;container=0;" parent="1" vertex="1">
          <mxGeometry x="201.92606356968213" y="697.439024390244" width="18.109657701711487" height="18.109756097560975" as="geometry" />
        </mxCell>
        <mxCell id="EkSB8nptQmgdFcWCz_d3-136" value="" style="rounded=0;whiteSpace=wrap;html=1;container=0;" parent="1" vertex="1">
          <mxGeometry x="220.03572127139364" y="697.439024390244" width="18.109657701711487" height="18.109756097560975" as="geometry" />
        </mxCell>
        <mxCell id="EkSB8nptQmgdFcWCz_d3-137" value="" style="rounded=0;whiteSpace=wrap;html=1;container=0;" parent="1" vertex="1">
          <mxGeometry x="165.70674816625916" y="679.329268292683" width="18.109657701711487" height="18.109756097560975" as="geometry" />
        </mxCell>
        <mxCell id="EkSB8nptQmgdFcWCz_d3-138" value="" style="rounded=0;whiteSpace=wrap;html=1;container=0;" parent="1" vertex="1">
          <mxGeometry x="183.81640586797064" y="679.329268292683" width="18.109657701711487" height="18.109756097560975" as="geometry" />
        </mxCell>
        <mxCell id="EkSB8nptQmgdFcWCz_d3-139" value="" style="rounded=0;whiteSpace=wrap;html=1;container=0;" parent="1" vertex="1">
          <mxGeometry x="201.92606356968213" y="679.329268292683" width="18.109657701711487" height="18.109756097560975" as="geometry" />
        </mxCell>
        <mxCell id="EkSB8nptQmgdFcWCz_d3-140" value="" style="rounded=0;whiteSpace=wrap;html=1;container=0;" parent="1" vertex="1">
          <mxGeometry x="220.03572127139364" y="679.329268292683" width="18.109657701711487" height="18.109756097560975" as="geometry" />
        </mxCell>
        <mxCell id="EkSB8nptQmgdFcWCz_d3-141" value="" style="rounded=0;whiteSpace=wrap;html=1;container=0;" parent="1" vertex="1">
          <mxGeometry x="165.70674816625916" y="661.219512195122" width="18.109657701711487" height="18.109756097560975" as="geometry" />
        </mxCell>
        <mxCell id="EkSB8nptQmgdFcWCz_d3-142" value="" style="rounded=0;whiteSpace=wrap;html=1;container=0;" parent="1" vertex="1">
          <mxGeometry x="183.81640586797064" y="661.219512195122" width="18.109657701711487" height="18.109756097560975" as="geometry" />
        </mxCell>
        <mxCell id="EkSB8nptQmgdFcWCz_d3-143" value="" style="rounded=0;whiteSpace=wrap;html=1;container=0;" parent="1" vertex="1">
          <mxGeometry x="201.92606356968213" y="661.219512195122" width="18.109657701711487" height="18.109756097560975" as="geometry" />
        </mxCell>
        <mxCell id="EkSB8nptQmgdFcWCz_d3-144" value="" style="rounded=0;whiteSpace=wrap;html=1;container=0;" parent="1" vertex="1">
          <mxGeometry x="220.03572127139364" y="661.219512195122" width="18.109657701711487" height="18.109756097560975" as="geometry" />
        </mxCell>
        <mxCell id="EkSB8nptQmgdFcWCz_d3-146" value="" style="rounded=0;whiteSpace=wrap;html=1;container=0;" parent="1" vertex="1">
          <mxGeometry x="244.73070904645473" y="715.548780487805" width="18.109657701711487" height="18.109756097560975" as="geometry" />
        </mxCell>
        <mxCell id="EkSB8nptQmgdFcWCz_d3-147" value="" style="rounded=0;whiteSpace=wrap;html=1;container=0;" parent="1" vertex="1">
          <mxGeometry x="262.8403667481662" y="715.548780487805" width="18.109657701711487" height="18.109756097560975" as="geometry" />
        </mxCell>
        <mxCell id="EkSB8nptQmgdFcWCz_d3-148" value="" style="rounded=0;whiteSpace=wrap;html=1;container=0;" parent="1" vertex="1">
          <mxGeometry x="280.95002444987773" y="715.548780487805" width="18.109657701711487" height="18.109756097560975" as="geometry" />
        </mxCell>
        <mxCell id="EkSB8nptQmgdFcWCz_d3-149" value="" style="rounded=0;whiteSpace=wrap;html=1;container=0;" parent="1" vertex="1">
          <mxGeometry x="299.0596821515892" y="715.548780487805" width="18.109657701711487" height="18.109756097560975" as="geometry" />
        </mxCell>
        <mxCell id="EkSB8nptQmgdFcWCz_d3-150" value="" style="rounded=0;whiteSpace=wrap;html=1;container=0;" parent="1" vertex="1">
          <mxGeometry x="244.73070904645473" y="697.439024390244" width="18.109657701711487" height="18.109756097560975" as="geometry" />
        </mxCell>
        <mxCell id="EkSB8nptQmgdFcWCz_d3-151" value="" style="rounded=0;whiteSpace=wrap;html=1;container=0;" parent="1" vertex="1">
          <mxGeometry x="262.8403667481662" y="697.439024390244" width="18.109657701711487" height="18.109756097560975" as="geometry" />
        </mxCell>
        <mxCell id="EkSB8nptQmgdFcWCz_d3-152" value="" style="rounded=0;whiteSpace=wrap;html=1;container=0;" parent="1" vertex="1">
          <mxGeometry x="280.95002444987773" y="697.439024390244" width="18.109657701711487" height="18.109756097560975" as="geometry" />
        </mxCell>
        <mxCell id="EkSB8nptQmgdFcWCz_d3-153" value="" style="rounded=0;whiteSpace=wrap;html=1;container=0;" parent="1" vertex="1">
          <mxGeometry x="299.0596821515892" y="697.439024390244" width="18.109657701711487" height="18.109756097560975" as="geometry" />
        </mxCell>
        <mxCell id="EkSB8nptQmgdFcWCz_d3-154" value="" style="rounded=0;whiteSpace=wrap;html=1;container=0;" parent="1" vertex="1">
          <mxGeometry x="244.73070904645473" y="679.329268292683" width="18.109657701711487" height="18.109756097560975" as="geometry" />
        </mxCell>
        <mxCell id="EkSB8nptQmgdFcWCz_d3-155" value="" style="rounded=0;whiteSpace=wrap;html=1;container=0;" parent="1" vertex="1">
          <mxGeometry x="262.8403667481662" y="679.329268292683" width="18.109657701711487" height="18.109756097560975" as="geometry" />
        </mxCell>
        <mxCell id="EkSB8nptQmgdFcWCz_d3-156" value="" style="rounded=0;whiteSpace=wrap;html=1;container=0;" parent="1" vertex="1">
          <mxGeometry x="280.95002444987773" y="679.329268292683" width="18.109657701711487" height="18.109756097560975" as="geometry" />
        </mxCell>
        <mxCell id="EkSB8nptQmgdFcWCz_d3-157" value="" style="rounded=0;whiteSpace=wrap;html=1;container=0;" parent="1" vertex="1">
          <mxGeometry x="299.0596821515892" y="679.329268292683" width="18.109657701711487" height="18.109756097560975" as="geometry" />
        </mxCell>
        <mxCell id="EkSB8nptQmgdFcWCz_d3-158" value="" style="rounded=0;whiteSpace=wrap;html=1;container=0;" parent="1" vertex="1">
          <mxGeometry x="244.73070904645473" y="661.219512195122" width="18.109657701711487" height="18.109756097560975" as="geometry" />
        </mxCell>
        <mxCell id="EkSB8nptQmgdFcWCz_d3-159" value="" style="rounded=0;whiteSpace=wrap;html=1;container=0;" parent="1" vertex="1">
          <mxGeometry x="262.8403667481662" y="661.219512195122" width="18.109657701711487" height="18.109756097560975" as="geometry" />
        </mxCell>
        <mxCell id="EkSB8nptQmgdFcWCz_d3-160" value="" style="rounded=0;whiteSpace=wrap;html=1;container=0;" parent="1" vertex="1">
          <mxGeometry x="280.95002444987773" y="661.219512195122" width="18.109657701711487" height="18.109756097560975" as="geometry" />
        </mxCell>
        <mxCell id="EkSB8nptQmgdFcWCz_d3-161" value="" style="rounded=0;whiteSpace=wrap;html=1;container=0;" parent="1" vertex="1">
          <mxGeometry x="299.0596821515892" y="661.219512195122" width="18.109657701711487" height="18.109756097560975" as="geometry" />
        </mxCell>
        <mxCell id="EkSB8nptQmgdFcWCz_d3-2" value="lines" parent="0" />
        <mxCell id="EkSB8nptQmgdFcWCz_d3-3" value="" style="endArrow=none;dashed=1;html=1;dashPattern=1 3;strokeWidth=2;rounded=0;entryX=0;entryY=0;entryDx=0;entryDy=0;" parent="EkSB8nptQmgdFcWCz_d3-2" target="k4aqoQIed_3reIs8EnuI-263" edge="1">
          <mxGeometry width="50" height="50" relative="1" as="geometry">
            <mxPoint x="220" y="490" as="sourcePoint" />
            <mxPoint x="270" y="440" as="targetPoint" />
          </mxGeometry>
        </mxCell>
        <mxCell id="EkSB8nptQmgdFcWCz_d3-4" value="" style="endArrow=none;dashed=1;html=1;dashPattern=1 3;strokeWidth=2;rounded=0;entryX=1;entryY=0;entryDx=0;entryDy=0;" parent="EkSB8nptQmgdFcWCz_d3-2" target="k4aqoQIed_3reIs8EnuI-263" edge="1">
          <mxGeometry width="50" height="50" relative="1" as="geometry">
            <mxPoint x="330" y="490" as="sourcePoint" />
            <mxPoint x="380" y="440" as="targetPoint" />
          </mxGeometry>
        </mxCell>
        <mxCell id="EkSB8nptQmgdFcWCz_d3-5" value="" style="endArrow=none;dashed=1;html=1;dashPattern=1 3;strokeWidth=2;rounded=0;entryX=1;entryY=1;entryDx=0;entryDy=0;" parent="EkSB8nptQmgdFcWCz_d3-2" target="k4aqoQIed_3reIs8EnuI-263" edge="1">
          <mxGeometry width="50" height="50" relative="1" as="geometry">
            <mxPoint x="330" y="600" as="sourcePoint" />
            <mxPoint x="460" y="520" as="targetPoint" />
          </mxGeometry>
        </mxCell>
        <mxCell id="EkSB8nptQmgdFcWCz_d3-8" value="" style="endArrow=none;dashed=1;html=1;dashPattern=1 3;strokeWidth=2;rounded=0;entryX=0;entryY=1;entryDx=0;entryDy=0;" parent="EkSB8nptQmgdFcWCz_d3-2" target="k4aqoQIed_3reIs8EnuI-263" edge="1">
          <mxGeometry width="50" height="50" relative="1" as="geometry">
            <mxPoint x="220" y="600" as="sourcePoint" />
            <mxPoint x="270" y="550" as="targetPoint" />
          </mxGeometry>
        </mxCell>
        <mxCell id="EkSB8nptQmgdFcWCz_d3-1" value="Untitled Layer" parent="0" />
        <mxCell id="k4aqoQIed_3reIs8EnuI-263" value="work-group `(w_x, w_y)`&amp;nbsp;" style="rounded=0;whiteSpace=wrap;html=1;fontStyle=1;verticalAlign=top;movable=1;resizable=1;rotatable=1;deletable=1;editable=1;locked=0;connectable=1;container=0;fontSize=18;" parent="EkSB8nptQmgdFcWCz_d3-1" vertex="1">
          <mxGeometry x="400" y="201.1764705882353" width="540.0033962264151" height="338.8235294117647" as="geometry" />
        </mxCell>
        <mxCell id="k4aqoQIed_3reIs8EnuI-258" value="" style="endArrow=none;dashed=1;html=1;dashPattern=1 3;strokeWidth=5;rounded=0;" parent="EkSB8nptQmgdFcWCz_d3-1" edge="1">
          <mxGeometry width="50" height="50" relative="1" as="geometry">
            <mxPoint x="654.1192452830189" y="370.5882352941177" as="sourcePoint" />
            <mxPoint x="696.4724528301887" y="412.94117647058823" as="targetPoint" />
          </mxGeometry>
        </mxCell>
        <mxCell id="k4aqoQIed_3reIs8EnuI-259" value="" style="endArrow=none;dashed=1;html=1;dashPattern=1 3;strokeWidth=5;rounded=0;" parent="EkSB8nptQmgdFcWCz_d3-1" edge="1">
          <mxGeometry width="50" height="50" relative="1" as="geometry">
            <mxPoint x="643.5309433962263" y="296.2588235294117" as="sourcePoint" />
            <mxPoint x="696.4724528301887" y="296.2588235294117" as="targetPoint" />
          </mxGeometry>
        </mxCell>
        <mxCell id="Xv6KGDbKqZ_7mmxz0GXl-2" value="" style="endArrow=none;dashed=1;html=1;dashPattern=1 3;strokeWidth=5;rounded=0;" parent="EkSB8nptQmgdFcWCz_d3-1" edge="1">
          <mxGeometry width="50" height="50" relative="1" as="geometry">
            <mxPoint x="643.5309433962263" y="476.47058823529414" as="sourcePoint" />
            <mxPoint x="696.4724528301887" y="476.47058823529414" as="targetPoint" />
          </mxGeometry>
        </mxCell>
        <mxCell id="Xv6KGDbKqZ_7mmxz0GXl-3" value="" style="endArrow=none;dashed=1;html=1;dashPattern=1 3;strokeWidth=5;rounded=0;" parent="EkSB8nptQmgdFcWCz_d3-1" edge="1">
          <mxGeometry width="50" height="50" relative="1" as="geometry">
            <mxPoint x="521.5537056603773" y="360" as="sourcePoint" />
            <mxPoint x="521.5537056603773" y="412.94117647058823" as="targetPoint" />
          </mxGeometry>
        </mxCell>
        <mxCell id="Xv6KGDbKqZ_7mmxz0GXl-4" value="" style="endArrow=none;dashed=1;html=1;dashPattern=1 3;strokeWidth=5;rounded=0;" parent="EkSB8nptQmgdFcWCz_d3-1" edge="1">
          <mxGeometry width="50" height="50" relative="1" as="geometry">
            <mxPoint x="818.026158490566" y="360" as="sourcePoint" />
            <mxPoint x="818.026158490566" y="412.94117647058823" as="targetPoint" />
          </mxGeometry>
        </mxCell>
        <mxCell id="Xv6KGDbKqZ_7mmxz0GXl-5" value="" style="endArrow=classic;startArrow=classic;html=1;rounded=0;startFill=1;strokeWidth=2;" parent="EkSB8nptQmgdFcWCz_d3-1" edge="1">
          <mxGeometry width="50" height="50" relative="1" as="geometry">
            <mxPoint x="400" y="180" as="sourcePoint" />
            <mxPoint x="940.0033962264151" y="180" as="targetPoint" />
          </mxGeometry>
        </mxCell>
        <mxCell id="Xv6KGDbKqZ_7mmxz0GXl-6" value="work-group size `S_x`" style="edgeLabel;html=1;align=center;verticalAlign=middle;resizable=0;points=[];fontSize=18;fontStyle=1;container=0;labelBackgroundColor=none;" parent="Xv6KGDbKqZ_7mmxz0GXl-5" vertex="1" connectable="0">
          <mxGeometry x="-0.241" y="1" relative="1" as="geometry">
            <mxPoint x="61" y="-19" as="offset" />
          </mxGeometry>
        </mxCell>
        <mxCell id="Xv6KGDbKqZ_7mmxz0GXl-7" value="" style="endArrow=classic;startArrow=classic;html=1;rounded=0;strokeWidth=2;" parent="EkSB8nptQmgdFcWCz_d3-1" edge="1">
          <mxGeometry width="50" height="50" relative="1" as="geometry">
            <mxPoint x="961.18" y="540" as="sourcePoint" />
            <mxPoint x="961.18" y="201.1764705882353" as="targetPoint" />
          </mxGeometry>
        </mxCell>
        <mxCell id="Xv6KGDbKqZ_7mmxz0GXl-8" value="work-group size `S_y`" style="edgeLabel;html=1;align=center;verticalAlign=middle;resizable=0;points=[];horizontal=0;fontSize=18;fontStyle=1;container=0;labelBackgroundColor=none;" parent="Xv6KGDbKqZ_7mmxz0GXl-7" vertex="1" connectable="0">
          <mxGeometry x="0.1144" y="-1" relative="1" as="geometry">
            <mxPoint x="18" y="18" as="offset" />
          </mxGeometry>
        </mxCell>
        <mxCell id="k4aqoQIed_3reIs8EnuI-229" value="&lt;font style=&quot;font-size: 18px;&quot; face=&quot;Times New Roman&quot;&gt;work-item&lt;/font&gt;" style="rounded=0;whiteSpace=wrap;html=1;fontStyle=1;verticalAlign=top;fontSize=18;container=0;" parent="EkSB8nptQmgdFcWCz_d3-1" vertex="1">
          <mxGeometry x="410.58830188679246" y="243.52941176470588" width="222.3543396226415" height="105.88235294117648" as="geometry" />
        </mxCell>
        <mxCell id="k4aqoQIed_3reIs8EnuI-228" value="&lt;font face=&quot;Times New Roman&quot; style=&quot;font-size: 13px;&quot;&gt;`(w_x * S_x + s_x + F_x,&lt;br style=&quot;font-size: 13px;&quot;&gt;w_y * S_y + s_y + F_y)`&lt;/font&gt;" style="text;strokeColor=none;fillColor=none;align=center;verticalAlign=middle;rounded=0;fontSize=13;html=1;whiteSpace=wrap;container=0;" parent="EkSB8nptQmgdFcWCz_d3-1" vertex="1">
          <mxGeometry x="410.58830188679246" y="273.1764705882353" width="222.3543396226415" height="31.764705882352942" as="geometry" />
        </mxCell>
        <mxCell id="k4aqoQIed_3reIs8EnuI-230" value="&lt;font face=&quot;Times New Roman&quot; style=&quot;font-size: 14px;&quot;&gt;`(s_x, s_y) = (0, 0)`&lt;/font&gt;" style="text;html=1;strokeColor=none;fillColor=none;align=center;verticalAlign=middle;whiteSpace=wrap;rounded=0;container=0;fontSize=14;" parent="EkSB8nptQmgdFcWCz_d3-1" vertex="1">
          <mxGeometry x="410.58830188679246" y="304.94117647058823" width="222.3543396226415" height="31.764705882352942" as="geometry" />
        </mxCell>
        <mxCell id="k4aqoQIed_3reIs8EnuI-235" value="&lt;font style=&quot;font-size: 18px;&quot; face=&quot;Times New Roman&quot;&gt;work-item&lt;/font&gt;" style="rounded=0;whiteSpace=wrap;html=1;fontStyle=1;verticalAlign=top;fontSize=18;container=0;" parent="EkSB8nptQmgdFcWCz_d3-1" vertex="1">
          <mxGeometry x="707.0607547169811" y="243.52941176470588" width="222.3543396226415" height="105.88235294117648" as="geometry" />
        </mxCell>
        <mxCell id="k4aqoQIed_3reIs8EnuI-236" value="&lt;font face=&quot;Times New Roman&quot; style=&quot;font-size: 13px;&quot;&gt;`(w_x * S_x + s_x + F_x,&lt;br style=&quot;font-size: 13px;&quot;&gt;w_y * S_y + s_y + F_y)`&lt;/font&gt;" style="text;strokeColor=none;fillColor=none;align=center;verticalAlign=middle;rounded=0;fontSize=13;html=1;whiteSpace=wrap;container=0;" parent="EkSB8nptQmgdFcWCz_d3-1" vertex="1">
          <mxGeometry x="707.0607547169811" y="273.1764705882353" width="222.3543396226415" height="31.764705882352942" as="geometry" />
        </mxCell>
        <mxCell id="k4aqoQIed_3reIs8EnuI-237" value="&lt;font face=&quot;Times New Roman&quot; style=&quot;font-size: 14px;&quot;&gt;`(s_x, s_y) = (S_x - 1, 0)`&lt;/font&gt;" style="text;html=1;strokeColor=none;fillColor=none;align=center;verticalAlign=middle;whiteSpace=wrap;rounded=0;container=0;fontSize=14;" parent="EkSB8nptQmgdFcWCz_d3-1" vertex="1">
          <mxGeometry x="707.0607547169811" y="304.94117647058823" width="222.3543396226415" height="31.764705882352942" as="geometry" />
        </mxCell>
        <mxCell id="k4aqoQIed_3reIs8EnuI-248" value="&lt;font style=&quot;font-size: 18px;&quot; face=&quot;Times New Roman&quot;&gt;work-item&lt;/font&gt;" style="rounded=0;whiteSpace=wrap;html=1;fontStyle=1;verticalAlign=top;fontSize=18;container=0;" parent="EkSB8nptQmgdFcWCz_d3-1" vertex="1">
          <mxGeometry x="410.58830188679246" y="423.52941176470586" width="222.3543396226415" height="105.88235294117648" as="geometry" />
        </mxCell>
        <mxCell id="k4aqoQIed_3reIs8EnuI-249" value="&lt;font face=&quot;Times New Roman&quot; style=&quot;font-size: 13px;&quot;&gt;`(w_x * S_x + s_x + F_x,&lt;br style=&quot;font-size: 13px;&quot;&gt;w_y * S_y + s_y + F_y)`&lt;/font&gt;" style="text;strokeColor=none;fillColor=none;align=center;verticalAlign=middle;rounded=0;fontSize=13;html=1;whiteSpace=wrap;container=0;" parent="EkSB8nptQmgdFcWCz_d3-1" vertex="1">
          <mxGeometry x="410.58830188679246" y="453.17647058823525" width="222.3543396226415" height="31.764705882352942" as="geometry" />
        </mxCell>
        <mxCell id="k4aqoQIed_3reIs8EnuI-250" value="&lt;font face=&quot;Times New Roman&quot; style=&quot;font-size: 14px;&quot;&gt;`(s_x, s_y) = (0, S_y - 1)`&lt;/font&gt;" style="text;html=1;strokeColor=none;fillColor=none;align=center;verticalAlign=middle;whiteSpace=wrap;rounded=0;container=0;fontSize=14;" parent="EkSB8nptQmgdFcWCz_d3-1" vertex="1">
          <mxGeometry x="410.58830188679246" y="484.94117647058823" width="222.3543396226415" height="31.764705882352942" as="geometry" />
        </mxCell>
        <mxCell id="k4aqoQIed_3reIs8EnuI-252" value="&lt;font style=&quot;font-size: 18px;&quot; face=&quot;Times New Roman&quot;&gt;work-item&lt;/font&gt;" style="rounded=0;whiteSpace=wrap;html=1;fontStyle=1;verticalAlign=top;fontSize=18;container=0;" parent="EkSB8nptQmgdFcWCz_d3-1" vertex="1">
          <mxGeometry x="707.0607547169811" y="423.52941176470586" width="222.3543396226415" height="105.88235294117648" as="geometry" />
        </mxCell>
        <mxCell id="k4aqoQIed_3reIs8EnuI-253" value="&lt;font face=&quot;Times New Roman&quot; style=&quot;font-size: 13px;&quot;&gt;`(w_x * S_x + s_x + F_x,&lt;br style=&quot;font-size: 13px;&quot;&gt;w_y * S_y + s_y + F_y)`&lt;/font&gt;" style="text;strokeColor=none;fillColor=none;align=center;verticalAlign=middle;rounded=0;fontSize=13;html=1;whiteSpace=wrap;container=0;" parent="EkSB8nptQmgdFcWCz_d3-1" vertex="1">
          <mxGeometry x="707.0607547169811" y="453.17647058823525" width="222.3543396226415" height="31.764705882352942" as="geometry" />
        </mxCell>
        <mxCell id="k4aqoQIed_3reIs8EnuI-254" value="&lt;font face=&quot;Times New Roman&quot; style=&quot;font-size: 14px;&quot;&gt;`(s_x, s_y) = (S_x - 1, S_y - 1)`&lt;/font&gt;" style="text;html=1;strokeColor=none;fillColor=none;align=center;verticalAlign=middle;whiteSpace=wrap;rounded=0;container=0;fontSize=14;" parent="EkSB8nptQmgdFcWCz_d3-1" vertex="1">
          <mxGeometry x="707.0607547169811" y="484.94117647058823" width="222.3543396226415" height="31.764705882352942" as="geometry" />
        </mxCell>
      </root>
    </mxGraphModel>
  </diagram>
  <diagram id="B6m4y10mbfHFWMLWP1Mk" name="work-group-item">
    <mxGraphModel dx="940" dy="626" grid="1" gridSize="10" guides="1" tooltips="1" connect="1" arrows="1" fold="1" page="1" pageScale="1" pageWidth="1169" pageHeight="827" math="0" shadow="0">
      <root>
        <mxCell id="0" />
        <mxCell id="1" parent="0" />
        <mxCell id="5r-ZOzmIphiEGufuJ_A_-1" value="" style="shape=table;startSize=0;container=1;collapsible=0;childLayout=tableLayout;fontFamily=Times New Roman;" parent="1" vertex="1">
          <mxGeometry x="200" y="280" width="640" height="40" as="geometry" />
        </mxCell>
        <mxCell id="5r-ZOzmIphiEGufuJ_A_-2" value="" style="shape=tableRow;horizontal=0;startSize=0;swimlaneHead=0;swimlaneBody=0;strokeColor=inherit;top=0;left=0;bottom=0;right=0;collapsible=0;dropTarget=0;fillColor=none;points=[[0,0.5],[1,0.5]];portConstraint=eastwest;fontFamily=Times New Roman;" parent="5r-ZOzmIphiEGufuJ_A_-1" vertex="1">
          <mxGeometry width="640" height="40" as="geometry" />
        </mxCell>
        <mxCell id="5r-ZOzmIphiEGufuJ_A_-3" value="6" style="shape=partialRectangle;html=1;whiteSpace=wrap;connectable=0;strokeColor=inherit;overflow=hidden;fillColor=none;top=0;left=0;bottom=0;right=0;pointerEvents=1;fontFamily=Times New Roman;fontSize=18;fontStyle=1" parent="5r-ZOzmIphiEGufuJ_A_-2" vertex="1">
          <mxGeometry width="40" height="40" as="geometry">
            <mxRectangle width="40" height="40" as="alternateBounds" />
          </mxGeometry>
        </mxCell>
        <mxCell id="5r-ZOzmIphiEGufuJ_A_-4" value="1" style="shape=partialRectangle;html=1;whiteSpace=wrap;connectable=0;strokeColor=inherit;overflow=hidden;fillColor=none;top=0;left=0;bottom=0;right=0;pointerEvents=1;fontFamily=Times New Roman;fontSize=18;fontStyle=1" parent="5r-ZOzmIphiEGufuJ_A_-2" vertex="1">
          <mxGeometry x="40" width="40" height="40" as="geometry">
            <mxRectangle width="40" height="40" as="alternateBounds" />
          </mxGeometry>
        </mxCell>
        <mxCell id="5r-ZOzmIphiEGufuJ_A_-5" value="1&lt;br&gt;" style="shape=partialRectangle;html=1;whiteSpace=wrap;connectable=0;strokeColor=inherit;overflow=hidden;fillColor=none;top=0;left=0;bottom=0;right=0;pointerEvents=1;fontFamily=Times New Roman;fontSize=18;fontStyle=1" parent="5r-ZOzmIphiEGufuJ_A_-2" vertex="1">
          <mxGeometry x="80" width="40" height="40" as="geometry">
            <mxRectangle width="40" height="40" as="alternateBounds" />
          </mxGeometry>
        </mxCell>
        <mxCell id="5r-ZOzmIphiEGufuJ_A_-6" value="0" style="shape=partialRectangle;html=1;whiteSpace=wrap;connectable=0;strokeColor=inherit;overflow=hidden;fillColor=none;top=0;left=0;bottom=0;right=0;pointerEvents=1;fontFamily=Times New Roman;fontSize=18;fontStyle=1" parent="5r-ZOzmIphiEGufuJ_A_-2" vertex="1">
          <mxGeometry x="120" width="41" height="40" as="geometry">
            <mxRectangle width="41" height="40" as="alternateBounds" />
          </mxGeometry>
        </mxCell>
        <mxCell id="5r-ZOzmIphiEGufuJ_A_-7" value="9" style="shape=partialRectangle;html=1;whiteSpace=wrap;connectable=0;strokeColor=inherit;overflow=hidden;fillColor=none;top=0;left=0;bottom=0;right=0;pointerEvents=1;fontFamily=Times New Roman;fontSize=18;fontStyle=1" parent="5r-ZOzmIphiEGufuJ_A_-2" vertex="1">
          <mxGeometry x="161" width="39" height="40" as="geometry">
            <mxRectangle width="39" height="40" as="alternateBounds" />
          </mxGeometry>
        </mxCell>
        <mxCell id="5r-ZOzmIphiEGufuJ_A_-8" value="2" style="shape=partialRectangle;html=1;whiteSpace=wrap;connectable=0;strokeColor=inherit;overflow=hidden;fillColor=none;top=0;left=0;bottom=0;right=0;pointerEvents=1;fontFamily=Times New Roman;fontSize=18;fontStyle=1" parent="5r-ZOzmIphiEGufuJ_A_-2" vertex="1">
          <mxGeometry x="200" width="40" height="40" as="geometry">
            <mxRectangle width="40" height="40" as="alternateBounds" />
          </mxGeometry>
        </mxCell>
        <mxCell id="5r-ZOzmIphiEGufuJ_A_-9" value="4" style="shape=partialRectangle;html=1;whiteSpace=wrap;connectable=0;strokeColor=inherit;overflow=hidden;fillColor=none;top=0;left=0;bottom=0;right=0;pointerEvents=1;fontFamily=Times New Roman;fontSize=18;fontStyle=1" parent="5r-ZOzmIphiEGufuJ_A_-2" vertex="1">
          <mxGeometry x="240" width="40" height="40" as="geometry">
            <mxRectangle width="40" height="40" as="alternateBounds" />
          </mxGeometry>
        </mxCell>
        <mxCell id="5r-ZOzmIphiEGufuJ_A_-10" value="1" style="shape=partialRectangle;html=1;whiteSpace=wrap;connectable=0;strokeColor=inherit;overflow=hidden;fillColor=none;top=0;left=0;bottom=0;right=0;pointerEvents=1;fontFamily=Times New Roman;fontSize=18;fontStyle=1" parent="5r-ZOzmIphiEGufuJ_A_-2" vertex="1">
          <mxGeometry x="280" width="40" height="40" as="geometry">
            <mxRectangle width="40" height="40" as="alternateBounds" />
          </mxGeometry>
        </mxCell>
        <mxCell id="5r-ZOzmIphiEGufuJ_A_-11" value="1" style="shape=partialRectangle;html=1;whiteSpace=wrap;connectable=0;strokeColor=inherit;overflow=hidden;fillColor=none;top=0;left=0;bottom=0;right=0;pointerEvents=1;fontFamily=Times New Roman;fontSize=18;fontStyle=1" parent="5r-ZOzmIphiEGufuJ_A_-2" vertex="1">
          <mxGeometry x="320" width="40" height="40" as="geometry">
            <mxRectangle width="40" height="40" as="alternateBounds" />
          </mxGeometry>
        </mxCell>
        <mxCell id="5r-ZOzmIphiEGufuJ_A_-12" value="9" style="shape=partialRectangle;html=1;whiteSpace=wrap;connectable=0;strokeColor=inherit;overflow=hidden;fillColor=none;top=0;left=0;bottom=0;right=0;pointerEvents=1;fontFamily=Times New Roman;fontSize=18;fontStyle=1" parent="5r-ZOzmIphiEGufuJ_A_-2" vertex="1">
          <mxGeometry x="360" width="40" height="40" as="geometry">
            <mxRectangle width="40" height="40" as="alternateBounds" />
          </mxGeometry>
        </mxCell>
        <mxCell id="5r-ZOzmIphiEGufuJ_A_-13" value="7" style="shape=partialRectangle;html=1;whiteSpace=wrap;connectable=0;strokeColor=inherit;overflow=hidden;fillColor=none;top=0;left=0;bottom=0;right=0;pointerEvents=1;fontFamily=Times New Roman;fontSize=18;fontStyle=1" parent="5r-ZOzmIphiEGufuJ_A_-2" vertex="1">
          <mxGeometry x="400" width="40" height="40" as="geometry">
            <mxRectangle width="40" height="40" as="alternateBounds" />
          </mxGeometry>
        </mxCell>
        <mxCell id="5r-ZOzmIphiEGufuJ_A_-14" value="6" style="shape=partialRectangle;html=1;whiteSpace=wrap;connectable=0;strokeColor=#d79b00;overflow=hidden;fillColor=#ffe6cc;top=0;left=0;bottom=0;right=0;pointerEvents=1;fontFamily=Times New Roman;fontSize=18;fontStyle=1;labelBackgroundColor=none;" parent="5r-ZOzmIphiEGufuJ_A_-2" vertex="1">
          <mxGeometry x="440" width="41" height="40" as="geometry">
            <mxRectangle width="41" height="40" as="alternateBounds" />
          </mxGeometry>
        </mxCell>
        <mxCell id="5r-ZOzmIphiEGufuJ_A_-15" value="8" style="shape=partialRectangle;html=1;whiteSpace=wrap;connectable=0;strokeColor=inherit;overflow=hidden;fillColor=none;top=0;left=0;bottom=0;right=0;pointerEvents=1;fontFamily=Times New Roman;fontSize=18;fontStyle=1" parent="5r-ZOzmIphiEGufuJ_A_-2" vertex="1">
          <mxGeometry x="481" width="39" height="40" as="geometry">
            <mxRectangle width="39" height="40" as="alternateBounds" />
          </mxGeometry>
        </mxCell>
        <mxCell id="5r-ZOzmIphiEGufuJ_A_-16" value="2" style="shape=partialRectangle;html=1;whiteSpace=wrap;connectable=0;strokeColor=inherit;overflow=hidden;fillColor=none;top=0;left=0;bottom=0;right=0;pointerEvents=1;fontFamily=Times New Roman;fontSize=18;fontStyle=1" parent="5r-ZOzmIphiEGufuJ_A_-2" vertex="1">
          <mxGeometry x="520" width="40" height="40" as="geometry">
            <mxRectangle width="40" height="40" as="alternateBounds" />
          </mxGeometry>
        </mxCell>
        <mxCell id="5r-ZOzmIphiEGufuJ_A_-17" value="2" style="shape=partialRectangle;html=1;whiteSpace=wrap;connectable=0;strokeColor=inherit;overflow=hidden;fillColor=none;top=0;left=0;bottom=0;right=0;pointerEvents=1;fontFamily=Times New Roman;fontSize=18;fontStyle=1" parent="5r-ZOzmIphiEGufuJ_A_-2" vertex="1">
          <mxGeometry x="560" width="40" height="40" as="geometry">
            <mxRectangle width="40" height="40" as="alternateBounds" />
          </mxGeometry>
        </mxCell>
        <mxCell id="5r-ZOzmIphiEGufuJ_A_-18" value="5" style="shape=partialRectangle;html=1;whiteSpace=wrap;connectable=0;strokeColor=inherit;overflow=hidden;fillColor=none;top=0;left=0;bottom=0;right=0;pointerEvents=1;fontFamily=Times New Roman;fontSize=18;fontStyle=1" parent="5r-ZOzmIphiEGufuJ_A_-2" vertex="1">
          <mxGeometry x="600" width="40" height="40" as="geometry">
            <mxRectangle width="40" height="40" as="alternateBounds" />
          </mxGeometry>
        </mxCell>
        <mxCell id="5r-ZOzmIphiEGufuJ_A_-20" value="" style="endArrow=classic;startArrow=classic;html=1;rounded=0;strokeWidth=2;fontFamily=Times New Roman;" parent="1" edge="1">
          <mxGeometry width="50" height="50" relative="1" as="geometry">
            <mxPoint x="200" y="340" as="sourcePoint" />
            <mxPoint x="840" y="340" as="targetPoint" />
          </mxGeometry>
        </mxCell>
        <mxCell id="5r-ZOzmIphiEGufuJ_A_-34" value="" style="shape=table;startSize=0;container=1;collapsible=0;childLayout=tableLayout;strokeColor=none;fontFamily=Times New Roman;fontSize=15;fontColor=default;fillColor=none;fontStyle=0" parent="1" vertex="1">
          <mxGeometry x="400" y="340" width="240" height="100" as="geometry" />
        </mxCell>
        <mxCell id="5r-ZOzmIphiEGufuJ_A_-35" value="" style="shape=tableRow;horizontal=0;startSize=0;swimlaneHead=0;swimlaneBody=0;strokeColor=inherit;top=0;left=0;bottom=0;right=0;collapsible=0;dropTarget=0;fillColor=none;points=[[0,0.5],[1,0.5]];portConstraint=eastwest;fontFamily=Times New Roman;fontSize=15;fontStyle=0" parent="5r-ZOzmIphiEGufuJ_A_-34" vertex="1">
          <mxGeometry width="240" height="34" as="geometry" />
        </mxCell>
        <mxCell id="5r-ZOzmIphiEGufuJ_A_-36" value="get_work_dim()" style="shape=partialRectangle;html=1;whiteSpace=wrap;connectable=0;strokeColor=inherit;overflow=hidden;fillColor=none;top=0;left=0;bottom=0;right=0;pointerEvents=1;align=right;fontFamily=Times New Roman;fontSize=18;fontStyle=0" parent="5r-ZOzmIphiEGufuJ_A_-35" vertex="1">
          <mxGeometry width="190" height="34" as="geometry">
            <mxRectangle width="190" height="34" as="alternateBounds" />
          </mxGeometry>
        </mxCell>
        <mxCell id="5r-ZOzmIphiEGufuJ_A_-37" value="=" style="shape=partialRectangle;html=1;whiteSpace=wrap;connectable=0;strokeColor=inherit;overflow=hidden;fillColor=none;top=0;left=0;bottom=0;right=0;pointerEvents=1;strokeWidth=0;fontFamily=Times New Roman;fontSize=18;fontStyle=0" parent="5r-ZOzmIphiEGufuJ_A_-35" vertex="1">
          <mxGeometry x="190" width="20" height="34" as="geometry">
            <mxRectangle width="20" height="34" as="alternateBounds" />
          </mxGeometry>
        </mxCell>
        <mxCell id="5r-ZOzmIphiEGufuJ_A_-38" value="1" style="shape=partialRectangle;html=1;whiteSpace=wrap;connectable=0;strokeColor=inherit;overflow=hidden;fillColor=none;top=0;left=0;bottom=0;right=0;pointerEvents=1;fontFamily=Times New Roman;fontSize=18;align=left;fontStyle=0" parent="5r-ZOzmIphiEGufuJ_A_-35" vertex="1">
          <mxGeometry x="210" width="30" height="34" as="geometry">
            <mxRectangle width="30" height="34" as="alternateBounds" />
          </mxGeometry>
        </mxCell>
        <mxCell id="5r-ZOzmIphiEGufuJ_A_-39" value="" style="shape=tableRow;horizontal=0;startSize=0;swimlaneHead=0;swimlaneBody=0;strokeColor=inherit;top=0;left=0;bottom=0;right=0;collapsible=0;dropTarget=0;fillColor=none;points=[[0,0.5],[1,0.5]];portConstraint=eastwest;fontFamily=Times New Roman;fontSize=15;fontStyle=0" parent="5r-ZOzmIphiEGufuJ_A_-34" vertex="1">
          <mxGeometry y="34" width="240" height="32" as="geometry" />
        </mxCell>
        <mxCell id="5r-ZOzmIphiEGufuJ_A_-40" value="get_global_size(0)" style="shape=partialRectangle;html=1;whiteSpace=wrap;connectable=0;strokeColor=inherit;overflow=hidden;fillColor=none;top=0;left=0;bottom=0;right=0;pointerEvents=1;fontFamily=Times New Roman;fontSize=18;align=right;fontStyle=0" parent="5r-ZOzmIphiEGufuJ_A_-39" vertex="1">
          <mxGeometry width="190" height="32" as="geometry">
            <mxRectangle width="190" height="32" as="alternateBounds" />
          </mxGeometry>
        </mxCell>
        <mxCell id="5r-ZOzmIphiEGufuJ_A_-41" value="=" style="shape=partialRectangle;html=1;whiteSpace=wrap;connectable=0;strokeColor=inherit;overflow=hidden;fillColor=none;top=0;left=0;bottom=0;right=0;pointerEvents=1;strokeWidth=0;fontFamily=Times New Roman;fontSize=18;fontStyle=0" parent="5r-ZOzmIphiEGufuJ_A_-39" vertex="1">
          <mxGeometry x="190" width="20" height="32" as="geometry">
            <mxRectangle width="20" height="32" as="alternateBounds" />
          </mxGeometry>
        </mxCell>
        <mxCell id="5r-ZOzmIphiEGufuJ_A_-42" value="16" style="shape=partialRectangle;html=1;whiteSpace=wrap;connectable=0;strokeColor=inherit;overflow=hidden;fillColor=none;top=0;left=0;bottom=0;right=0;pointerEvents=1;fontFamily=Times New Roman;fontSize=18;align=left;fontStyle=0" parent="5r-ZOzmIphiEGufuJ_A_-39" vertex="1">
          <mxGeometry x="210" width="30" height="32" as="geometry">
            <mxRectangle width="30" height="32" as="alternateBounds" />
          </mxGeometry>
        </mxCell>
        <mxCell id="5r-ZOzmIphiEGufuJ_A_-43" value="" style="shape=tableRow;horizontal=0;startSize=0;swimlaneHead=0;swimlaneBody=0;strokeColor=inherit;top=0;left=0;bottom=0;right=0;collapsible=0;dropTarget=0;fillColor=none;points=[[0,0.5],[1,0.5]];portConstraint=eastwest;fontFamily=Times New Roman;fontSize=15;fontStyle=0" parent="5r-ZOzmIphiEGufuJ_A_-34" vertex="1">
          <mxGeometry y="66" width="240" height="34" as="geometry" />
        </mxCell>
        <mxCell id="5r-ZOzmIphiEGufuJ_A_-44" value="get_num_groups(0)" style="shape=partialRectangle;html=1;whiteSpace=wrap;connectable=0;strokeColor=inherit;overflow=hidden;fillColor=none;top=0;left=0;bottom=0;right=0;pointerEvents=1;fontFamily=Times New Roman;fontSize=18;align=right;fontStyle=0" parent="5r-ZOzmIphiEGufuJ_A_-43" vertex="1">
          <mxGeometry width="190" height="34" as="geometry">
            <mxRectangle width="190" height="34" as="alternateBounds" />
          </mxGeometry>
        </mxCell>
        <mxCell id="5r-ZOzmIphiEGufuJ_A_-45" value="=" style="shape=partialRectangle;html=1;whiteSpace=wrap;connectable=0;strokeColor=inherit;overflow=hidden;fillColor=none;top=0;left=0;bottom=0;right=0;pointerEvents=1;strokeWidth=0;fontFamily=Times New Roman;fontSize=18;fontStyle=0" parent="5r-ZOzmIphiEGufuJ_A_-43" vertex="1">
          <mxGeometry x="190" width="20" height="34" as="geometry">
            <mxRectangle width="20" height="34" as="alternateBounds" />
          </mxGeometry>
        </mxCell>
        <mxCell id="5r-ZOzmIphiEGufuJ_A_-46" value="2" style="shape=partialRectangle;html=1;whiteSpace=wrap;connectable=0;strokeColor=inherit;overflow=hidden;fillColor=none;top=0;left=0;bottom=0;right=0;pointerEvents=1;fontFamily=Times New Roman;fontSize=18;align=left;fontStyle=0" parent="5r-ZOzmIphiEGufuJ_A_-43" vertex="1">
          <mxGeometry x="210" width="30" height="34" as="geometry">
            <mxRectangle width="30" height="34" as="alternateBounds" />
          </mxGeometry>
        </mxCell>
        <mxCell id="hexZSqnUcXyA-A2SjG4O-1" value="input" style="text;html=1;strokeColor=none;fillColor=none;align=right;verticalAlign=middle;whiteSpace=wrap;rounded=0;fontFamily=Times New Roman;fontSize=18;fontStyle=1" parent="1" vertex="1">
          <mxGeometry x="130" y="280" width="60" height="40" as="geometry" />
        </mxCell>
        <mxCell id="hexZSqnUcXyA-A2SjG4O-2" value="" style="endArrow=classic;startArrow=classic;html=1;rounded=0;strokeWidth=2;fontFamily=Times New Roman;" parent="1" edge="1">
          <mxGeometry width="50" height="50" relative="1" as="geometry">
            <mxPoint x="200" y="460" as="sourcePoint" />
            <mxPoint x="520" y="460" as="targetPoint" />
          </mxGeometry>
        </mxCell>
        <mxCell id="hexZSqnUcXyA-A2SjG4O-3" value="" style="endArrow=classic;startArrow=classic;html=1;rounded=0;strokeWidth=2;fontFamily=Times New Roman;" parent="1" edge="1">
          <mxGeometry width="50" height="50" relative="1" as="geometry">
            <mxPoint x="520" y="460" as="sourcePoint" />
            <mxPoint x="840" y="460" as="targetPoint" />
          </mxGeometry>
        </mxCell>
        <mxCell id="hexZSqnUcXyA-A2SjG4O-4" value="" style="shape=table;startSize=0;container=1;collapsible=0;childLayout=tableLayout;strokeColor=none;fontFamily=Times New Roman;fontSize=15;fontColor=default;fillColor=none;fontStyle=1" parent="1" vertex="1">
          <mxGeometry x="240" y="460" width="240" height="66" as="geometry" />
        </mxCell>
        <mxCell id="hexZSqnUcXyA-A2SjG4O-5" value="" style="shape=tableRow;horizontal=0;startSize=0;swimlaneHead=0;swimlaneBody=0;strokeColor=inherit;top=0;left=0;bottom=0;right=0;collapsible=0;dropTarget=0;fillColor=none;points=[[0,0.5],[1,0.5]];portConstraint=eastwest;fontFamily=Times New Roman;fontSize=15;" parent="hexZSqnUcXyA-A2SjG4O-4" vertex="1">
          <mxGeometry width="240" height="34" as="geometry" />
        </mxCell>
        <mxCell id="hexZSqnUcXyA-A2SjG4O-6" value="get_group_id(0)" style="shape=partialRectangle;html=1;whiteSpace=wrap;connectable=0;strokeColor=inherit;overflow=hidden;fillColor=none;top=0;left=0;bottom=0;right=0;pointerEvents=1;align=right;fontFamily=Times New Roman;fontSize=18;fontStyle=0" parent="hexZSqnUcXyA-A2SjG4O-5" vertex="1">
          <mxGeometry width="190" height="34" as="geometry">
            <mxRectangle width="190" height="34" as="alternateBounds" />
          </mxGeometry>
        </mxCell>
        <mxCell id="hexZSqnUcXyA-A2SjG4O-7" value="=" style="shape=partialRectangle;html=1;whiteSpace=wrap;connectable=0;strokeColor=inherit;overflow=hidden;fillColor=none;top=0;left=0;bottom=0;right=0;pointerEvents=1;strokeWidth=0;fontFamily=Times New Roman;fontSize=18;fontStyle=0" parent="hexZSqnUcXyA-A2SjG4O-5" vertex="1">
          <mxGeometry x="190" width="20" height="34" as="geometry">
            <mxRectangle width="20" height="34" as="alternateBounds" />
          </mxGeometry>
        </mxCell>
        <mxCell id="hexZSqnUcXyA-A2SjG4O-8" value="0" style="shape=partialRectangle;html=1;whiteSpace=wrap;connectable=0;strokeColor=inherit;overflow=hidden;fillColor=none;top=0;left=0;bottom=0;right=0;pointerEvents=1;fontFamily=Times New Roman;fontSize=18;align=left;fontStyle=0" parent="hexZSqnUcXyA-A2SjG4O-5" vertex="1">
          <mxGeometry x="210" width="30" height="34" as="geometry">
            <mxRectangle width="30" height="34" as="alternateBounds" />
          </mxGeometry>
        </mxCell>
        <mxCell id="hexZSqnUcXyA-A2SjG4O-9" value="" style="shape=tableRow;horizontal=0;startSize=0;swimlaneHead=0;swimlaneBody=0;strokeColor=inherit;top=0;left=0;bottom=0;right=0;collapsible=0;dropTarget=0;fillColor=none;points=[[0,0.5],[1,0.5]];portConstraint=eastwest;fontFamily=Times New Roman;fontSize=15;" parent="hexZSqnUcXyA-A2SjG4O-4" vertex="1">
          <mxGeometry y="34" width="240" height="32" as="geometry" />
        </mxCell>
        <mxCell id="hexZSqnUcXyA-A2SjG4O-10" value="get_local_size(0)" style="shape=partialRectangle;html=1;whiteSpace=wrap;connectable=0;strokeColor=inherit;overflow=hidden;fillColor=none;top=0;left=0;bottom=0;right=0;pointerEvents=1;fontFamily=Times New Roman;fontSize=18;align=right;fontStyle=0" parent="hexZSqnUcXyA-A2SjG4O-9" vertex="1">
          <mxGeometry width="190" height="32" as="geometry">
            <mxRectangle width="190" height="32" as="alternateBounds" />
          </mxGeometry>
        </mxCell>
        <mxCell id="hexZSqnUcXyA-A2SjG4O-11" value="=" style="shape=partialRectangle;html=1;whiteSpace=wrap;connectable=0;strokeColor=inherit;overflow=hidden;fillColor=none;top=0;left=0;bottom=0;right=0;pointerEvents=1;strokeWidth=0;fontFamily=Times New Roman;fontSize=18;fontStyle=0" parent="hexZSqnUcXyA-A2SjG4O-9" vertex="1">
          <mxGeometry x="190" width="20" height="32" as="geometry">
            <mxRectangle width="20" height="32" as="alternateBounds" />
          </mxGeometry>
        </mxCell>
        <mxCell id="hexZSqnUcXyA-A2SjG4O-12" value="8" style="shape=partialRectangle;html=1;whiteSpace=wrap;connectable=0;strokeColor=inherit;overflow=hidden;fillColor=none;top=0;left=0;bottom=0;right=0;pointerEvents=1;fontFamily=Times New Roman;fontSize=18;align=left;fontStyle=0" parent="hexZSqnUcXyA-A2SjG4O-9" vertex="1">
          <mxGeometry x="210" width="30" height="32" as="geometry">
            <mxRectangle width="30" height="32" as="alternateBounds" />
          </mxGeometry>
        </mxCell>
        <mxCell id="hexZSqnUcXyA-A2SjG4O-30" value="" style="shape=table;startSize=0;container=1;collapsible=0;childLayout=tableLayout;strokeColor=none;fontFamily=Times New Roman;fontSize=15;fontColor=default;fillColor=none;fontStyle=0" parent="1" vertex="1">
          <mxGeometry x="560" y="460" width="240" height="66" as="geometry" />
        </mxCell>
        <mxCell id="hexZSqnUcXyA-A2SjG4O-31" value="" style="shape=tableRow;horizontal=0;startSize=0;swimlaneHead=0;swimlaneBody=0;strokeColor=inherit;top=0;left=0;bottom=0;right=0;collapsible=0;dropTarget=0;fillColor=none;points=[[0,0.5],[1,0.5]];portConstraint=eastwest;fontFamily=Times New Roman;fontSize=15;fontStyle=0" parent="hexZSqnUcXyA-A2SjG4O-30" vertex="1">
          <mxGeometry width="240" height="34" as="geometry" />
        </mxCell>
        <mxCell id="hexZSqnUcXyA-A2SjG4O-32" value="get_group_id(0)" style="shape=partialRectangle;html=1;whiteSpace=wrap;connectable=0;strokeColor=inherit;overflow=hidden;fillColor=none;top=0;left=0;bottom=0;right=0;pointerEvents=1;align=right;fontFamily=Times New Roman;fontSize=18;fontStyle=0" parent="hexZSqnUcXyA-A2SjG4O-31" vertex="1">
          <mxGeometry width="190" height="34" as="geometry">
            <mxRectangle width="190" height="34" as="alternateBounds" />
          </mxGeometry>
        </mxCell>
        <mxCell id="hexZSqnUcXyA-A2SjG4O-33" value="=" style="shape=partialRectangle;html=1;whiteSpace=wrap;connectable=0;strokeColor=inherit;overflow=hidden;fillColor=none;top=0;left=0;bottom=0;right=0;pointerEvents=1;strokeWidth=0;fontFamily=Times New Roman;fontSize=18;fontStyle=0" parent="hexZSqnUcXyA-A2SjG4O-31" vertex="1">
          <mxGeometry x="190" width="20" height="34" as="geometry">
            <mxRectangle width="20" height="34" as="alternateBounds" />
          </mxGeometry>
        </mxCell>
        <mxCell id="hexZSqnUcXyA-A2SjG4O-34" value="1" style="shape=partialRectangle;html=1;whiteSpace=wrap;connectable=0;strokeColor=inherit;overflow=hidden;fillColor=none;top=0;left=0;bottom=0;right=0;pointerEvents=1;fontFamily=Times New Roman;fontSize=18;align=left;fontStyle=0" parent="hexZSqnUcXyA-A2SjG4O-31" vertex="1">
          <mxGeometry x="210" width="30" height="34" as="geometry">
            <mxRectangle width="30" height="34" as="alternateBounds" />
          </mxGeometry>
        </mxCell>
        <mxCell id="hexZSqnUcXyA-A2SjG4O-35" value="" style="shape=tableRow;horizontal=0;startSize=0;swimlaneHead=0;swimlaneBody=0;strokeColor=inherit;top=0;left=0;bottom=0;right=0;collapsible=0;dropTarget=0;fillColor=none;points=[[0,0.5],[1,0.5]];portConstraint=eastwest;fontFamily=Times New Roman;fontSize=15;fontStyle=0" parent="hexZSqnUcXyA-A2SjG4O-30" vertex="1">
          <mxGeometry y="34" width="240" height="32" as="geometry" />
        </mxCell>
        <mxCell id="hexZSqnUcXyA-A2SjG4O-36" value="get_local_size(0)" style="shape=partialRectangle;html=1;whiteSpace=wrap;connectable=0;strokeColor=inherit;overflow=hidden;fillColor=none;top=0;left=0;bottom=0;right=0;pointerEvents=1;fontFamily=Times New Roman;fontSize=18;align=right;fontStyle=0" parent="hexZSqnUcXyA-A2SjG4O-35" vertex="1">
          <mxGeometry width="190" height="32" as="geometry">
            <mxRectangle width="190" height="32" as="alternateBounds" />
          </mxGeometry>
        </mxCell>
        <mxCell id="hexZSqnUcXyA-A2SjG4O-37" value="=" style="shape=partialRectangle;html=1;whiteSpace=wrap;connectable=0;strokeColor=inherit;overflow=hidden;fillColor=none;top=0;left=0;bottom=0;right=0;pointerEvents=1;strokeWidth=0;fontFamily=Times New Roman;fontSize=18;fontStyle=0" parent="hexZSqnUcXyA-A2SjG4O-35" vertex="1">
          <mxGeometry x="190" width="20" height="32" as="geometry">
            <mxRectangle width="20" height="32" as="alternateBounds" />
          </mxGeometry>
        </mxCell>
        <mxCell id="hexZSqnUcXyA-A2SjG4O-38" value="8" style="shape=partialRectangle;html=1;whiteSpace=wrap;connectable=0;strokeColor=inherit;overflow=hidden;fillColor=none;top=0;left=0;bottom=0;right=0;pointerEvents=1;fontFamily=Times New Roman;fontSize=18;align=left;fontStyle=0" parent="hexZSqnUcXyA-A2SjG4O-35" vertex="1">
          <mxGeometry x="210" width="30" height="32" as="geometry">
            <mxRectangle width="30" height="32" as="alternateBounds" />
          </mxGeometry>
        </mxCell>
        <mxCell id="hexZSqnUcXyA-A2SjG4O-39" value="work-group" style="text;html=1;strokeColor=none;fillColor=none;align=right;verticalAlign=middle;whiteSpace=wrap;rounded=0;fontFamily=Times New Roman;fontSize=18;fontStyle=1" parent="1" vertex="1">
          <mxGeometry x="80" y="440" width="110" height="40" as="geometry" />
        </mxCell>
        <mxCell id="hexZSqnUcXyA-A2SjG4O-40" value="" style="endArrow=classic;html=1;rounded=0;strokeWidth=2;startArrow=oval;startFill=1;fontFamily=Times New Roman;" parent="1" edge="1">
          <mxGeometry width="50" height="50" relative="1" as="geometry">
            <mxPoint x="200" y="560" as="sourcePoint" />
            <mxPoint x="640" y="560" as="targetPoint" />
          </mxGeometry>
        </mxCell>
        <mxCell id="hexZSqnUcXyA-A2SjG4O-41" value="work-item" style="text;html=1;strokeColor=none;fillColor=none;align=right;verticalAlign=middle;whiteSpace=wrap;rounded=0;fontFamily=Times New Roman;fontSize=18;fontStyle=1" parent="1" vertex="1">
          <mxGeometry x="80" y="540" width="110" height="40" as="geometry" />
        </mxCell>
        <mxCell id="hexZSqnUcXyA-A2SjG4O-42" value="" style="rounded=0;whiteSpace=wrap;html=1;fillColor=#ffe6cc;strokeColor=#d79b00;fontFamily=Times New Roman;" parent="1" vertex="1">
          <mxGeometry x="640" y="540" width="40" height="40" as="geometry" />
        </mxCell>
        <mxCell id="hexZSqnUcXyA-A2SjG4O-61" value="" style="shape=table;startSize=0;container=1;collapsible=0;childLayout=tableLayout;strokeColor=none;fontFamily=Times New Roman;fontSize=15;fontColor=default;fillColor=none;fontStyle=0" parent="1" vertex="1">
          <mxGeometry x="600" y="590" width="200" height="66" as="geometry" />
        </mxCell>
        <mxCell id="hexZSqnUcXyA-A2SjG4O-62" value="" style="shape=tableRow;horizontal=0;startSize=0;swimlaneHead=0;swimlaneBody=0;strokeColor=inherit;top=0;left=0;bottom=0;right=0;collapsible=0;dropTarget=0;fillColor=none;points=[[0,0.5],[1,0.5]];portConstraint=eastwest;fontFamily=Times New Roman;fontSize=15;fontStyle=0" parent="hexZSqnUcXyA-A2SjG4O-61" vertex="1">
          <mxGeometry width="200" height="34" as="geometry" />
        </mxCell>
        <mxCell id="hexZSqnUcXyA-A2SjG4O-63" value="get_local_id(0)" style="shape=partialRectangle;html=1;whiteSpace=wrap;connectable=0;strokeColor=inherit;overflow=hidden;fillColor=none;top=0;left=0;bottom=0;right=0;pointerEvents=1;align=right;fontFamily=Times New Roman;fontSize=18;fontStyle=0" parent="hexZSqnUcXyA-A2SjG4O-62" vertex="1">
          <mxGeometry width="158" height="34" as="geometry">
            <mxRectangle width="158" height="34" as="alternateBounds" />
          </mxGeometry>
        </mxCell>
        <mxCell id="hexZSqnUcXyA-A2SjG4O-64" value="=" style="shape=partialRectangle;html=1;whiteSpace=wrap;connectable=0;strokeColor=inherit;overflow=hidden;fillColor=none;top=0;left=0;bottom=0;right=0;pointerEvents=1;strokeWidth=0;fontFamily=Times New Roman;fontSize=18;fontStyle=0" parent="hexZSqnUcXyA-A2SjG4O-62" vertex="1">
          <mxGeometry x="158" width="17" height="34" as="geometry">
            <mxRectangle width="17" height="34" as="alternateBounds" />
          </mxGeometry>
        </mxCell>
        <mxCell id="hexZSqnUcXyA-A2SjG4O-65" value="3" style="shape=partialRectangle;html=1;whiteSpace=wrap;connectable=0;strokeColor=inherit;overflow=hidden;fillColor=none;top=0;left=0;bottom=0;right=0;pointerEvents=1;fontFamily=Times New Roman;fontSize=18;align=left;fontStyle=0" parent="hexZSqnUcXyA-A2SjG4O-62" vertex="1">
          <mxGeometry x="175" width="25" height="34" as="geometry">
            <mxRectangle width="25" height="34" as="alternateBounds" />
          </mxGeometry>
        </mxCell>
        <mxCell id="hexZSqnUcXyA-A2SjG4O-66" value="" style="shape=tableRow;horizontal=0;startSize=0;swimlaneHead=0;swimlaneBody=0;strokeColor=inherit;top=0;left=0;bottom=0;right=0;collapsible=0;dropTarget=0;fillColor=none;points=[[0,0.5],[1,0.5]];portConstraint=eastwest;fontFamily=Times New Roman;fontSize=15;fontStyle=0" parent="hexZSqnUcXyA-A2SjG4O-61" vertex="1">
          <mxGeometry y="34" width="200" height="32" as="geometry" />
        </mxCell>
        <mxCell id="hexZSqnUcXyA-A2SjG4O-67" value="get_global_id(0)" style="shape=partialRectangle;html=1;whiteSpace=wrap;connectable=0;strokeColor=inherit;overflow=hidden;fillColor=none;top=0;left=0;bottom=0;right=0;pointerEvents=1;fontFamily=Times New Roman;fontSize=18;align=right;fontStyle=0" parent="hexZSqnUcXyA-A2SjG4O-66" vertex="1">
          <mxGeometry width="158" height="32" as="geometry">
            <mxRectangle width="158" height="32" as="alternateBounds" />
          </mxGeometry>
        </mxCell>
        <mxCell id="hexZSqnUcXyA-A2SjG4O-68" value="=" style="shape=partialRectangle;html=1;whiteSpace=wrap;connectable=0;strokeColor=inherit;overflow=hidden;fillColor=none;top=0;left=0;bottom=0;right=0;pointerEvents=1;strokeWidth=0;fontFamily=Times New Roman;fontSize=18;fontStyle=0" parent="hexZSqnUcXyA-A2SjG4O-66" vertex="1">
          <mxGeometry x="158" width="17" height="32" as="geometry">
            <mxRectangle width="17" height="32" as="alternateBounds" />
          </mxGeometry>
        </mxCell>
        <mxCell id="hexZSqnUcXyA-A2SjG4O-69" value="11" style="shape=partialRectangle;html=1;whiteSpace=wrap;connectable=0;strokeColor=inherit;overflow=hidden;fillColor=none;top=0;left=0;bottom=0;right=0;pointerEvents=1;fontFamily=Times New Roman;fontSize=18;align=left;fontStyle=0" parent="hexZSqnUcXyA-A2SjG4O-66" vertex="1">
          <mxGeometry x="175" width="25" height="32" as="geometry">
            <mxRectangle width="25" height="32" as="alternateBounds" />
          </mxGeometry>
        </mxCell>
      </root>
    </mxGraphModel>
  </diagram>
  <diagram id="MH9Z2uzzlRnMnpRnRuuU" name="context">
    <mxGraphModel dx="2280" dy="2052" grid="1" gridSize="10" guides="1" tooltips="1" connect="1" arrows="1" fold="1" page="0" pageScale="1" pageWidth="1169" pageHeight="827" math="1" shadow="0">
      <root>
        <mxCell id="0" />
        <mxCell id="1" parent="0" />
        <mxCell id="Zj0570x04he2aHsPEIqq-55" value="" style="rounded=0;whiteSpace=wrap;html=1;fillColor=#d5e8d4;strokeColor=#82b366;" parent="1" vertex="1">
          <mxGeometry x="-380" y="-140" width="480" height="190" as="geometry" />
        </mxCell>
        <mxCell id="Zj0570x04he2aHsPEIqq-54" value="" style="rounded=0;whiteSpace=wrap;html=1;fontSize=18;fontStyle=1;fontFamily=Times New Roman;verticalAlign=bottom;align=left;spacingLeft=10;fillColor=#dae8fc;strokeColor=#6c8ebf;" parent="1" vertex="1">
          <mxGeometry x="600" y="-140" width="220" height="190" as="geometry" />
        </mxCell>
        <mxCell id="Zj0570x04he2aHsPEIqq-53" value="Compute Device" style="rounded=0;whiteSpace=wrap;html=1;fontSize=18;fontStyle=1;fontFamily=Times New Roman;verticalAlign=top;align=left;spacingLeft=10;fillColor=#dae8fc;strokeColor=#6c8ebf;" parent="1" vertex="1">
          <mxGeometry x="590" y="-130" width="220" height="190" as="geometry" />
        </mxCell>
        <mxCell id="Zj0570x04he2aHsPEIqq-31" value="" style="group" parent="1" vertex="1" connectable="0">
          <mxGeometry x="-360" y="-120" width="270" height="150" as="geometry" />
        </mxCell>
        <mxCell id="Zj0570x04he2aHsPEIqq-26" value="&lt;div style=&quot;font-size: 12px;&quot;&gt;&lt;br&gt;&lt;/div&gt;" style="rounded=0;whiteSpace=wrap;html=1;align=left;fontSize=12;" parent="Zj0570x04he2aHsPEIqq-31" vertex="1">
          <mxGeometry x="20" width="250" height="130" as="geometry" />
        </mxCell>
        <mxCell id="Zj0570x04he2aHsPEIqq-25" value="&lt;div style=&quot;font-size: 12px;&quot;&gt;&lt;br&gt;&lt;/div&gt;" style="rounded=0;whiteSpace=wrap;html=1;align=left;fontSize=12;" parent="Zj0570x04he2aHsPEIqq-31" vertex="1">
          <mxGeometry x="10" y="10" width="250" height="130" as="geometry" />
        </mxCell>
        <mxCell id="Zj0570x04he2aHsPEIqq-24" value="&lt;div style=&quot;font-size: 12px;&quot;&gt;&lt;font face=&quot;Verdana&quot; style=&quot;font-size: 12px;&quot;&gt;__kernel&amp;nbsp;&lt;/font&gt;&lt;/div&gt;&lt;div style=&quot;font-size: 12px;&quot;&gt;&lt;font face=&quot;Verdana&quot; style=&quot;font-size: 12px;&quot;&gt;void dp_mul(__global const float *a,&amp;nbsp;&lt;/font&gt;&lt;/div&gt;&lt;div style=&quot;font-size: 12px;&quot;&gt;&lt;font face=&quot;Verdana&quot; style=&quot;font-size: 12px;&quot;&gt;&amp;nbsp; &amp;nbsp; &amp;nbsp; &amp;nbsp; &amp;nbsp; &amp;nbsp; &amp;nbsp; &amp;nbsp; &amp;nbsp; &amp;nbsp;__global const float *b,&amp;nbsp;&lt;/font&gt;&lt;/div&gt;&lt;div style=&quot;font-size: 12px;&quot;&gt;&lt;font face=&quot;Verdana&quot; style=&quot;font-size: 12px;&quot;&gt;&amp;nbsp; &amp;nbsp; &amp;nbsp; &amp;nbsp; &amp;nbsp; &amp;nbsp; &amp;nbsp; &amp;nbsp; &amp;nbsp; &amp;nbsp;__global float *c)&lt;/font&gt;&lt;/div&gt;&lt;div style=&quot;font-size: 12px;&quot;&gt;&lt;font face=&quot;Verdana&quot; style=&quot;font-size: 12px;&quot;&gt;{&lt;/font&gt;&lt;/div&gt;&lt;div style=&quot;font-size: 12px;&quot;&gt;&lt;font face=&quot;Verdana&quot; style=&quot;font-size: 12px;&quot;&gt;&amp;nbsp; &amp;nbsp; int id = get_global_id(0);&lt;/font&gt;&lt;/div&gt;&lt;div style=&quot;font-size: 12px;&quot;&gt;&lt;font face=&quot;Verdana&quot; style=&quot;font-size: 12px;&quot;&gt;&amp;nbsp; &amp;nbsp; c[i] = a[i] * b[i];&lt;/font&gt;&lt;/div&gt;&lt;div style=&quot;font-size: 12px;&quot;&gt;&lt;font face=&quot;Verdana&quot; style=&quot;font-size: 12px;&quot;&gt;}&lt;/font&gt;&lt;/div&gt;" style="rounded=0;whiteSpace=wrap;html=1;align=left;fontSize=12;spacingLeft=10;" parent="Zj0570x04he2aHsPEIqq-31" vertex="1">
          <mxGeometry y="20" width="250" height="130" as="geometry" />
        </mxCell>
        <mxCell id="Zj0570x04he2aHsPEIqq-27" value="dp_mul&lt;br style=&quot;font-size: 16px;&quot;&gt;CPU program binary" style="rounded=0;whiteSpace=wrap;html=1;fontFamily=Times New Roman;fontSize=16;container=0;" parent="1" vertex="1">
          <mxGeometry x="-70" y="-110" width="150" height="55" as="geometry" />
        </mxCell>
        <mxCell id="Zj0570x04he2aHsPEIqq-28" value="dp_mul&lt;br style=&quot;font-size: 16px;&quot;&gt;GPU program binary" style="rounded=0;whiteSpace=wrap;html=1;fontFamily=Times New Roman;container=0;fontSize=16;" parent="1" vertex="1">
          <mxGeometry x="-70" y="-35" width="150" height="55" as="geometry" />
        </mxCell>
        <mxCell id="Zj0570x04he2aHsPEIqq-58" value="Programs" style="rounded=0;whiteSpace=wrap;html=1;fontFamily=Times New Roman;fontSize=20;fontStyle=1;fillColor=#ffe6cc;strokeColor=#d79b00;" parent="1" vertex="1">
          <mxGeometry x="-180" y="-230" width="140" height="50" as="geometry" />
        </mxCell>
        <mxCell id="Zj0570x04he2aHsPEIqq-59" value="Kernels" style="rounded=0;whiteSpace=wrap;html=1;fontFamily=Times New Roman;fontSize=20;fontStyle=1;fillColor=#ffe6cc;strokeColor=#d79b00;" parent="1" vertex="1">
          <mxGeometry x="140" y="-230" width="150" height="50" as="geometry" />
        </mxCell>
        <mxCell id="Zj0570x04he2aHsPEIqq-60" value="Memory Objects" style="rounded=0;whiteSpace=wrap;html=1;fontFamily=Times New Roman;fontSize=20;fontStyle=1;fillColor=#ffe6cc;strokeColor=#d79b00;" parent="1" vertex="1">
          <mxGeometry x="350" y="-230" width="190" height="50" as="geometry" />
        </mxCell>
        <mxCell id="Zj0570x04he2aHsPEIqq-61" value="Command Queues" style="rounded=0;whiteSpace=wrap;html=1;fontFamily=Times New Roman;fontSize=20;fontStyle=1;fillColor=#ffe6cc;strokeColor=#d79b00;" parent="1" vertex="1">
          <mxGeometry x="600" y="-230" width="190" height="50" as="geometry" />
        </mxCell>
        <mxCell id="Zj0570x04he2aHsPEIqq-62" value="Context" style="rounded=0;whiteSpace=wrap;html=1;fontFamily=Times New Roman;fontSize=24;fontStyle=1;fillColor=#e1d5e7;strokeColor=#9673a6;" parent="1" vertex="1">
          <mxGeometry x="-380" y="-340" width="1230" height="70" as="geometry" />
        </mxCell>
        <mxCell id="Zj0570x04he2aHsPEIqq-63" value="CPU" style="rounded=0;whiteSpace=wrap;html=1;fontFamily=Times New Roman;fontSize=20;fontStyle=1;fillColor=#dedede;strokeColor=#666666;fontColor=#333333;" parent="1" vertex="1">
          <mxGeometry x="310" y="-430" width="140" height="50" as="geometry" />
        </mxCell>
        <mxCell id="Zj0570x04he2aHsPEIqq-64" value="GPU" style="rounded=0;whiteSpace=wrap;html=1;fontFamily=Times New Roman;fontSize=20;fontStyle=1;fillColor=#dedede;strokeColor=#666666;fontColor=#333333;" parent="1" vertex="1">
          <mxGeometry x="500" y="-430" width="140" height="50" as="geometry" />
        </mxCell>
        <mxCell id="Zj0570x04he2aHsPEIqq-66" value="" style="endArrow=classic;startArrow=classic;html=1;rounded=0;strokeWidth=2;" parent="1" edge="1">
          <mxGeometry width="50" height="50" relative="1" as="geometry">
            <mxPoint x="379.66999999999996" y="-340" as="sourcePoint" />
            <mxPoint x="379.66999999999996" y="-380" as="targetPoint" />
          </mxGeometry>
        </mxCell>
        <mxCell id="Zj0570x04he2aHsPEIqq-67" value="" style="endArrow=classic;startArrow=classic;html=1;rounded=0;strokeWidth=2;" parent="1" edge="1">
          <mxGeometry width="50" height="50" relative="1" as="geometry">
            <mxPoint x="569.67" y="-340" as="sourcePoint" />
            <mxPoint x="569.67" y="-380" as="targetPoint" />
          </mxGeometry>
        </mxCell>
        <mxCell id="Zj0570x04he2aHsPEIqq-68" value="" style="endArrow=classic;startArrow=classic;html=1;rounded=0;strokeWidth=2;" parent="1" edge="1">
          <mxGeometry width="50" height="50" relative="1" as="geometry">
            <mxPoint x="699.63" y="-230" as="sourcePoint" />
            <mxPoint x="699.63" y="-270" as="targetPoint" />
          </mxGeometry>
        </mxCell>
        <mxCell id="Zj0570x04he2aHsPEIqq-69" value="" style="endArrow=classic;startArrow=classic;html=1;rounded=0;strokeWidth=2;" parent="1" edge="1">
          <mxGeometry width="50" height="50" relative="1" as="geometry">
            <mxPoint x="449.99999999999994" y="-230" as="sourcePoint" />
            <mxPoint x="449.99999999999994" y="-270" as="targetPoint" />
          </mxGeometry>
        </mxCell>
        <mxCell id="Zj0570x04he2aHsPEIqq-70" value="" style="endArrow=classic;startArrow=classic;html=1;rounded=0;strokeWidth=2;" parent="1" edge="1">
          <mxGeometry width="50" height="50" relative="1" as="geometry">
            <mxPoint x="214.66999999999993" y="-230" as="sourcePoint" />
            <mxPoint x="214.66999999999993" y="-270" as="targetPoint" />
          </mxGeometry>
        </mxCell>
        <mxCell id="Zj0570x04he2aHsPEIqq-71" value="" style="endArrow=classic;startArrow=classic;html=1;rounded=0;strokeWidth=2;" parent="1" edge="1">
          <mxGeometry width="50" height="50" relative="1" as="geometry">
            <mxPoint x="-110.33000000000007" y="-230" as="sourcePoint" />
            <mxPoint x="-110.33000000000007" y="-270" as="targetPoint" />
          </mxGeometry>
        </mxCell>
        <mxCell id="Zj0570x04he2aHsPEIqq-72" value="" style="endArrow=classic;startArrow=classic;html=1;rounded=0;strokeWidth=2;" parent="1" edge="1">
          <mxGeometry width="50" height="50" relative="1" as="geometry">
            <mxPoint x="-110.33000000000007" y="-140" as="sourcePoint" />
            <mxPoint x="-110.33000000000007" y="-180" as="targetPoint" />
          </mxGeometry>
        </mxCell>
        <mxCell id="Zj0570x04he2aHsPEIqq-73" value="" style="endArrow=classic;startArrow=classic;html=1;rounded=0;strokeWidth=2;" parent="1" edge="1">
          <mxGeometry width="50" height="50" relative="1" as="geometry">
            <mxPoint x="214.66999999999993" y="-140" as="sourcePoint" />
            <mxPoint x="214.66999999999993" y="-180" as="targetPoint" />
          </mxGeometry>
        </mxCell>
        <mxCell id="Zj0570x04he2aHsPEIqq-74" value="" style="endArrow=classic;startArrow=classic;html=1;rounded=0;strokeWidth=2;" parent="1" edge="1">
          <mxGeometry width="50" height="50" relative="1" as="geometry">
            <mxPoint x="379.66999999999996" y="-140" as="sourcePoint" />
            <mxPoint x="379.66999999999996" y="-180" as="targetPoint" />
          </mxGeometry>
        </mxCell>
        <mxCell id="Zj0570x04he2aHsPEIqq-75" value="" style="endArrow=classic;startArrow=classic;html=1;rounded=0;strokeWidth=2;" parent="1" edge="1">
          <mxGeometry width="50" height="50" relative="1" as="geometry">
            <mxPoint x="509.63" y="-140" as="sourcePoint" />
            <mxPoint x="509.63" y="-180" as="targetPoint" />
          </mxGeometry>
        </mxCell>
        <mxCell id="Zj0570x04he2aHsPEIqq-76" value="" style="endArrow=classic;startArrow=classic;html=1;rounded=0;strokeWidth=2;" parent="1" edge="1">
          <mxGeometry width="50" height="50" relative="1" as="geometry">
            <mxPoint x="699.67" y="-140" as="sourcePoint" />
            <mxPoint x="699.67" y="-180" as="targetPoint" />
          </mxGeometry>
        </mxCell>
        <mxCell id="Zj0570x04he2aHsPEIqq-79" value="Compile&lt;br&gt;code" style="shape=step;perimeter=stepPerimeter;whiteSpace=wrap;html=1;fixedSize=1;fontSize=26;fontStyle=1;fillColor=#d5e8d4;strokeColor=#82b366;" parent="1" vertex="1">
          <mxGeometry x="-380" y="90" width="500" height="80" as="geometry" />
        </mxCell>
        <mxCell id="Zj0570x04he2aHsPEIqq-80" value="Create data and &lt;br&gt;arguments" style="shape=step;perimeter=stepPerimeter;whiteSpace=wrap;html=1;fixedSize=1;fontSize=26;fontStyle=1;fillColor=#f8cecc;strokeColor=#b85450;" parent="1" vertex="1">
          <mxGeometry x="110" y="90" width="480" height="80" as="geometry" />
        </mxCell>
        <mxCell id="Zj0570x04he2aHsPEIqq-81" value="Send to &lt;br&gt;execution" style="shape=step;perimeter=stepPerimeter;whiteSpace=wrap;html=1;fixedSize=1;fontSize=26;fontStyle=1;fillColor=#dae8fc;strokeColor=#6c8ebf;" parent="1" vertex="1">
          <mxGeometry x="580" y="90" width="270" height="80" as="geometry" />
        </mxCell>
        <mxCell id="Zj0570x04he2aHsPEIqq-37" value="" style="rounded=0;whiteSpace=wrap;html=1;fontFamily=Times New Roman;fontSize=18;fontStyle=0;fillColor=#f8cecc;strokeColor=#b85450;" parent="1" vertex="1">
          <mxGeometry x="330" y="-140" width="100" height="50" as="geometry" />
        </mxCell>
        <mxCell id="Zj0570x04he2aHsPEIqq-38" value="" style="rounded=0;whiteSpace=wrap;html=1;fontFamily=Times New Roman;fontSize=18;fontStyle=0;fillColor=#f8cecc;strokeColor=#b85450;" parent="1" vertex="1">
          <mxGeometry x="320" y="-130" width="100" height="50" as="geometry" />
        </mxCell>
        <mxCell id="Zj0570x04he2aHsPEIqq-39" value="Images" style="rounded=0;whiteSpace=wrap;html=1;fontFamily=Times New Roman;fontSize=18;fontStyle=1;fillColor=#f8cecc;strokeColor=#b85450;" parent="1" vertex="1">
          <mxGeometry x="310" y="-120" width="100" height="50" as="geometry" />
        </mxCell>
        <mxCell id="Zj0570x04he2aHsPEIqq-40" value="" style="rounded=0;whiteSpace=wrap;html=1;fontFamily=Times New Roman;fontSize=18;fontStyle=0;fillColor=#f8cecc;strokeColor=#b85450;" parent="1" vertex="1">
          <mxGeometry x="470" y="-140" width="100" height="50" as="geometry" />
        </mxCell>
        <mxCell id="Zj0570x04he2aHsPEIqq-41" value="" style="rounded=0;whiteSpace=wrap;html=1;fontFamily=Times New Roman;fontSize=18;fontStyle=0;fillColor=#f8cecc;strokeColor=#b85450;" parent="1" vertex="1">
          <mxGeometry x="460" y="-130" width="100" height="50" as="geometry" />
        </mxCell>
        <mxCell id="Zj0570x04he2aHsPEIqq-42" value="Buffers" style="rounded=0;whiteSpace=wrap;html=1;fontFamily=Times New Roman;fontSize=18;fontStyle=1;fillColor=#f8cecc;strokeColor=#b85450;" parent="1" vertex="1">
          <mxGeometry x="450" y="-120" width="100" height="50" as="geometry" />
        </mxCell>
        <mxCell id="Zj0570x04he2aHsPEIqq-45" value="" style="rounded=0;whiteSpace=wrap;html=1;" parent="1" vertex="1">
          <mxGeometry x="630" y="-90" width="60" height="120" as="geometry" />
        </mxCell>
        <mxCell id="Zj0570x04he2aHsPEIqq-47" value="" style="rounded=0;whiteSpace=wrap;html=1;" parent="1" vertex="1">
          <mxGeometry x="620" y="-80" width="60" height="120" as="geometry" />
        </mxCell>
        <mxCell id="Zj0570x04he2aHsPEIqq-48" value="&lt;font face=&quot;Times New Roman&quot; style=&quot;font-size: 18px;&quot;&gt;In Order Queue&lt;/font&gt;" style="rounded=0;whiteSpace=wrap;html=1;" parent="1" vertex="1">
          <mxGeometry x="610" y="-70" width="60" height="120" as="geometry" />
        </mxCell>
        <mxCell id="Zj0570x04he2aHsPEIqq-46" value="" style="rounded=0;whiteSpace=wrap;html=1;" parent="1" vertex="1">
          <mxGeometry x="730" y="-90" width="60" height="120" as="geometry" />
        </mxCell>
        <mxCell id="Zj0570x04he2aHsPEIqq-49" value="" style="rounded=0;whiteSpace=wrap;html=1;" parent="1" vertex="1">
          <mxGeometry x="720" y="-80" width="60" height="120" as="geometry" />
        </mxCell>
        <mxCell id="Zj0570x04he2aHsPEIqq-50" value="&lt;font face=&quot;Times New Roman&quot; style=&quot;font-size: 18px;&quot;&gt;Out of Order Queue&lt;/font&gt;" style="rounded=0;whiteSpace=wrap;html=1;" parent="1" vertex="1">
          <mxGeometry x="710" y="-70" width="60" height="120" as="geometry" />
        </mxCell>
        <mxCell id="Zj0570x04he2aHsPEIqq-14" value="" style="rounded=0;whiteSpace=wrap;html=1;fontSize=18;fillColor=#d5e8d4;strokeColor=#82b366;" parent="1" vertex="1">
          <mxGeometry x="150" y="-140" width="140" height="180" as="geometry" />
        </mxCell>
        <mxCell id="Zj0570x04he2aHsPEIqq-13" value="" style="rounded=0;whiteSpace=wrap;html=1;fontSize=18;fillColor=#d5e8d4;strokeColor=#82b366;" parent="1" vertex="1">
          <mxGeometry x="140" y="-130" width="140" height="180" as="geometry" />
        </mxCell>
        <mxCell id="Zj0570x04he2aHsPEIqq-7" value="" style="rounded=0;whiteSpace=wrap;html=1;fontSize=18;fillColor=#d5e8d4;strokeColor=#82b366;" parent="1" vertex="1">
          <mxGeometry x="130" y="-120" width="140" height="180" as="geometry" />
        </mxCell>
        <mxCell id="Zj0570x04he2aHsPEIqq-15" value="" style="shape=table;startSize=0;container=1;collapsible=0;childLayout=tableLayout;fontSize=18;rounded=0;swimlaneLine=1;strokeWidth=1;fontFamily=Times New Roman;" parent="1" vertex="1">
          <mxGeometry x="140" y="-110" width="120" height="160" as="geometry" />
        </mxCell>
        <mxCell id="Zj0570x04he2aHsPEIqq-16" value="" style="shape=tableRow;horizontal=0;startSize=0;swimlaneHead=0;swimlaneBody=0;strokeColor=inherit;top=0;left=0;bottom=0;right=0;collapsible=0;dropTarget=0;fillColor=none;points=[[0,0.5],[1,0.5]];portConstraint=eastwest;fontSize=18;fontFamily=Times New Roman;" parent="Zj0570x04he2aHsPEIqq-15" vertex="1">
          <mxGeometry width="120" height="40" as="geometry" />
        </mxCell>
        <mxCell id="Zj0570x04he2aHsPEIqq-17" value="dp_mul" style="shape=partialRectangle;html=1;whiteSpace=wrap;connectable=0;strokeColor=inherit;overflow=hidden;fillColor=none;top=0;left=0;bottom=0;right=0;pointerEvents=1;fontSize=18;fontFamily=Times New Roman;" parent="Zj0570x04he2aHsPEIqq-16" vertex="1">
          <mxGeometry width="120" height="40" as="geometry">
            <mxRectangle width="120" height="40" as="alternateBounds" />
          </mxGeometry>
        </mxCell>
        <mxCell id="Zj0570x04he2aHsPEIqq-18" value="" style="shape=tableRow;horizontal=0;startSize=0;swimlaneHead=0;swimlaneBody=0;strokeColor=inherit;top=0;left=0;bottom=0;right=0;collapsible=0;dropTarget=0;fillColor=none;points=[[0,0.5],[1,0.5]];portConstraint=eastwest;fontSize=18;" parent="Zj0570x04he2aHsPEIqq-15" vertex="1">
          <mxGeometry y="40" width="120" height="40" as="geometry" />
        </mxCell>
        <mxCell id="Zj0570x04he2aHsPEIqq-19" value="arg[0] value" style="shape=partialRectangle;html=1;whiteSpace=wrap;connectable=0;strokeColor=inherit;overflow=hidden;fillColor=none;top=0;left=0;bottom=0;right=0;pointerEvents=1;fontSize=18;fontFamily=Times New Roman;" parent="Zj0570x04he2aHsPEIqq-18" vertex="1">
          <mxGeometry width="120" height="40" as="geometry">
            <mxRectangle width="120" height="40" as="alternateBounds" />
          </mxGeometry>
        </mxCell>
        <mxCell id="Zj0570x04he2aHsPEIqq-20" value="" style="shape=tableRow;horizontal=0;startSize=0;swimlaneHead=0;swimlaneBody=0;strokeColor=inherit;top=0;left=0;bottom=0;right=0;collapsible=0;dropTarget=0;fillColor=none;points=[[0,0.5],[1,0.5]];portConstraint=eastwest;fontSize=18;" parent="Zj0570x04he2aHsPEIqq-15" vertex="1">
          <mxGeometry y="80" width="120" height="40" as="geometry" />
        </mxCell>
        <mxCell id="Zj0570x04he2aHsPEIqq-21" value="arg[1] value" style="shape=partialRectangle;html=1;whiteSpace=wrap;connectable=0;strokeColor=inherit;overflow=hidden;fillColor=none;top=0;left=0;bottom=0;right=0;pointerEvents=1;fontSize=18;fontFamily=Times New Roman;" parent="Zj0570x04he2aHsPEIqq-20" vertex="1">
          <mxGeometry width="120" height="40" as="geometry">
            <mxRectangle width="120" height="40" as="alternateBounds" />
          </mxGeometry>
        </mxCell>
        <mxCell id="Zj0570x04he2aHsPEIqq-22" value="" style="shape=tableRow;horizontal=0;startSize=0;swimlaneHead=0;swimlaneBody=0;strokeColor=inherit;top=0;left=0;bottom=0;right=0;collapsible=0;dropTarget=0;fillColor=none;points=[[0,0.5],[1,0.5]];portConstraint=eastwest;fontSize=18;" parent="Zj0570x04he2aHsPEIqq-15" vertex="1">
          <mxGeometry y="120" width="120" height="40" as="geometry" />
        </mxCell>
        <mxCell id="Zj0570x04he2aHsPEIqq-23" value="arg[2] value" style="shape=partialRectangle;html=1;whiteSpace=wrap;connectable=0;strokeColor=inherit;overflow=hidden;fillColor=none;top=0;left=0;bottom=0;right=0;pointerEvents=1;fontSize=18;fontFamily=Times New Roman;" parent="Zj0570x04he2aHsPEIqq-22" vertex="1">
          <mxGeometry width="120" height="40" as="geometry">
            <mxRectangle width="120" height="40" as="alternateBounds" />
          </mxGeometry>
        </mxCell>
      </root>
    </mxGraphModel>
  </diagram>
</mxfile>
